<?xml version="1.0" encoding="utf-8"?>
<!-- Generator: Adobe Illustrator 27.5.0, SVG Export Plug-In . SVG Version: 6.00 Build 0)  -->
<svg version="1.1" id="Layer_1" xmlns="http://www.w3.org/2000/svg" xmlns:xlink="http://www.w3.org/1999/xlink" x="0px" y="0px"
	 viewBox="0 0 1080 303.1" style="enable-background:new 0 0 1080 303.1;" xml:space="preserve">
<style type="text/css">
	.st0{fill:#1D0054;}
	.st1{clip-path:url(#SVGID_00000170239308864955130930000013822777845048123276_);}
	.st2{clip-path:url(#SVGID_00000094593265171779128140000016802113187263577762_);}
	.st3{clip-path:url(#SVGID_00000035506393186014970050000006730853235842679723_);}
	.st4{clip-path:url(#SVGID_00000033329130612873335930000003632256665557598380_);}
	.st5{clip-path:url(#SVGID_00000025417811343368174120000010933050061834110378_);}
	.st6{clip-path:url(#SVGID_00000040567226137949916370000010133514117676407737_);}
	.st7{fill:#BDD3F6;}
	.st8{clip-path:url(#SVGID_00000092419612173986426900000017953329647914745515_);}
	.st9{clip-path:url(#SVGID_00000179618439939996874970000007498598476495264921_);}
	.st10{clip-path:url(#SVGID_00000075145355568748459930000000217431216862805378_);}
	.st11{clip-path:url(#SVGID_00000023983417582346993670000012688054282495847565_);}
	.st12{fill:#FFFFFF;}
</style>
<path class="st0" d="M217.5,116.8c0,1.8,0,3.2-0.5,5c-0.5,1.8-0.9,3.2-1.4,4.6c-0.5,1.4-1.4,3.2-2.3,4.6c-0.9,1.4-1.8,2.7-3.2,3.7
	c-1.4,1.4-2.3,2.3-3.7,3.2c-1.4,0.9-2.7,1.8-4.6,2.3c-1.4,0.5-3.2,0.9-4.6,1.4c-1.8,0.5-3.2,0.5-5,0.5c-1.8,0-3.2,0-5-0.5
	c-1.8-0.5-3.2-0.9-4.6-1.4c-1.4-0.5-3.2-1.4-4.6-2.3c-1.4-0.9-2.7-1.8-3.7-3.2c-1.4-1.4-2.3-2.3-3.2-3.7s-1.8-2.7-2.3-4.6
	c-0.5-1.8-0.9-3.2-1.4-4.6c-0.5-1.8-0.5-3.2-0.5-5c0-1.8,0-3.2,0.5-5c0.5-1.8,0.9-3.2,1.4-4.6c0.5-1.4,1.4-3.2,2.3-4.6
	c0.9-1.4,1.8-2.7,3.2-3.7c1.4-1.4,2.3-2.3,3.7-3.2c1.4-0.9,2.7-1.8,4.6-2.3c1.8-0.5,3.2-0.9,4.6-1.4c1.4-0.5,3.2-0.5,5-0.5
	c1.8,0,3.2,0,5,0.5c1.8,0.5,3.2,0.9,4.6,1.4c1.4,0.5,3.2,1.4,4.6,2.3c1.4,0.9,2.7,1.8,3.7,3.2c1.4,1.4,2.3,2.3,3.2,3.7
	c0.9,1.4,1.8,2.7,2.3,4.6c0.5,1.4,0.9,3.2,1.4,4.6C217.5,113.6,217.5,114.9,217.5,116.8z"/>
<g>
	<defs>
		<rect id="SVGID_1_" x="77.3" y="3.2" width="300" height="298.8"/>
	</defs>
	<clipPath id="SVGID_00000068662097459557078000000015901341078729194661_">
		<use xlink:href="#SVGID_1_"  style="overflow:visible;"/>
	</clipPath>
	<g style="clip-path:url(#SVGID_00000068662097459557078000000015901341078729194661_);">
		<path class="st0" d="M368.1,252.3l-77.6-77.6c10-16.9,16-37,16-58c0-63.4-51.1-114.6-114.6-114.6S77.4,53.3,77.4,116.8
			s51.1,114.6,114.6,114.6c21.5,0,41.1-5.9,58-16l77.6,77.6c5,5,12.3,8.2,20.1,8.2c16,0,28.8-12.8,28.8-28.8
			C376.8,265.1,373.6,257.8,368.1,252.3z M115.7,116.8c0-42,34.2-76.2,76.2-76.2c42,0,76.2,34.2,76.2,76.2c0,42-34.2,76.2-76.2,76.2
			C149.9,193,115.7,159.2,115.7,116.8z"/>
	</g>
</g>
<g>
	<defs>
		<rect id="SVGID_00000178894553683413785590000017888707275008593327_" x="0.7" y="34.6" width="94" height="164.3"/>
	</defs>
	<clipPath id="SVGID_00000029724536926053552990000017693249949696962694_">
		<use xlink:href="#SVGID_00000178894553683413785590000017888707275008593327_"  style="overflow:visible;"/>
	</clipPath>
	<g style="clip-path:url(#SVGID_00000029724536926053552990000017693249949696962694_);">
		<path class="st0" d="M64.6,116.8c0-31,11.4-59.8,30.1-81.7C36.3,67,1.2,116.8,1.2,116.8s35.1,49.7,93.6,81.7
			C76,176.6,64.6,147.8,64.6,116.8z"/>
	</g>
</g>
<g>
	<defs>
		<rect id="SVGID_00000085942552935210691410000008117814221073074102_" x="289.3" y="34.6" width="94.3" height="147.6"/>
	</defs>
	<clipPath id="SVGID_00000172432218571289492690000009850505746398530447_">
		<use xlink:href="#SVGID_00000085942552935210691410000008117814221073074102_"  style="overflow:visible;"/>
	</clipPath>
	<g style="clip-path:url(#SVGID_00000172432218571289492690000009850505746398530447_);">
		<path class="st0" d="M306.5,172.4l9.6,9.6c42.4-30.1,67.1-65.3,67.1-65.3S348,67,289.6,35.1c18.7,22.4,30.1,50.7,30.1,81.7
			C319.3,136.8,314.7,155.6,306.5,172.4z"/>
	</g>
</g>
<g>
	<defs>
		<rect id="SVGID_00000168100058745413452150000007138734455556089227_" x="98.7" y="22.2" width="272" height="274.7"/>
	</defs>
	<clipPath id="SVGID_00000173155062817606785900000004790291281043204753_">
		<use xlink:href="#SVGID_00000168100058745413452150000007138734455556089227_"  style="overflow:visible;"/>
	</clipPath>
	<g style="clip-path:url(#SVGID_00000173155062817606785900000004790291281043204753_);">
		<g>
			<defs>
				
					<rect id="SVGID_00000036962074881493539920000010550003335063293614_" x="99" y="11.8" transform="matrix(6.773988e-02 -0.9977 0.9977 6.773988e-02 69.5247 376.7642)" width="274.6" height="278.7"/>
			</defs>
			<clipPath id="SVGID_00000028318452023074965370000013250511986169681025_">
				<use xlink:href="#SVGID_00000036962074881493539920000010550003335063293614_"  style="overflow:visible;"/>
			</clipPath>
			<g style="clip-path:url(#SVGID_00000028318452023074965370000013250511986169681025_);">
				<g>
					<defs>
						
							<rect id="SVGID_00000044168463157247613600000015364139372004246678_" x="99" y="11.8" transform="matrix(6.773988e-02 -0.9977 0.9977 6.773988e-02 69.5247 376.7642)" width="274.6" height="278.7"/>
					</defs>
					<clipPath id="SVGID_00000003103268974871304140000009823699343441997952_">
						<use xlink:href="#SVGID_00000044168463157247613600000015364139372004246678_"  style="overflow:visible;"/>
					</clipPath>
					<g style="clip-path:url(#SVGID_00000003103268974871304140000009823699343441997952_);">
						<path class="st7" d="M254.2,53.5c19.5,18.2,29.6,43.9,27.8,70.5c-1.4,20.1-9.7,39.3-23.5,54.1c-33.2,35.5-89,37.5-124.5,4.3
							c-19.5-18.2-29.6-43.8-27.8-70.5c1.4-20.1,9.7-39.3,23.5-54.1C162.8,22.3,218.6,20.4,254.2,53.5z M289.7,209.7l-5.8,5.7
							l-26.6-26.8c2-1.8,4-3.7,5.8-5.7L289.7,209.7z M303.5,212.6l57.8,58.5c1,1,1.5,2.4,1.4,3.8c-0.1,1.2-0.6,2.4-1.5,3.2l-9.9,9.8
							c-0.9,0.9-2.2,1.5-3.5,1.4c-1.3,0-2.6-0.5-3.5-1.5l-57.8-58.5c-1-1-1.5-2.4-1.4-3.8c0.1-1.2,0.6-2.4,1.5-3.2l9.9-9.8
							c0.9-0.9,2.2-1.5,3.5-1.4C301.3,211.1,302.6,211.6,303.5,212.6z M124.7,53.2c-14.8,15.9-23.8,36.6-25.3,58.2
							c-1.9,28.6,9,56.3,29.9,75.9c34.5,32.1,86.7,33.6,122.8,5.6l27.4,27.6c-0.7,1.4-1.2,2.9-1.3,4.5c-0.2,3.4,1,6.7,3.4,9.1
							l57.8,58.5c2.2,2.2,5.2,3.5,8.3,3.5c3.1,0,6.1-1.2,8.3-3.4l9.9-9.8c2-2,3.3-4.7,3.5-7.6c0.2-3.4-1-6.7-3.4-9.1l-57.8-58.5
							c-2.2-2.2-5.2-3.5-8.3-3.5c-1.8,0-3.4,0.4-5,1.1l-27.4-27.6c12.3-15.1,19.8-33.9,21.1-53.4c1.9-28.6-9-56.3-29.9-75.9
							C220.5,12.9,160.4,15,124.7,53.2"/>
					</g>
				</g>
			</g>
		</g>
	</g>
</g>
<g>
	<defs>
		<rect id="SVGID_00000138571468365314466760000018013634117476250548_" x="116" y="39.5" width="156" height="157.3"/>
	</defs>
	<clipPath id="SVGID_00000039095906127663799640000009476423275451405230_">
		<use xlink:href="#SVGID_00000138571468365314466760000018013634117476250548_"  style="overflow:visible;"/>
	</clipPath>
	<g style="clip-path:url(#SVGID_00000039095906127663799640000009476423275451405230_);">
		<g>
			<defs>
				
					<rect id="SVGID_00000071526499544280757860000001921458564352011182_" x="99" y="11.8" transform="matrix(6.773988e-02 -0.9977 0.9977 6.773988e-02 69.5247 376.7642)" width="274.6" height="278.7"/>
			</defs>
			<clipPath id="SVGID_00000054248775857315266320000000665468978595415177_">
				<use xlink:href="#SVGID_00000071526499544280757860000001921458564352011182_"  style="overflow:visible;"/>
			</clipPath>
			<g style="clip-path:url(#SVGID_00000054248775857315266320000000665468978595415177_);">
				<g>
					<defs>
						
							<rect id="SVGID_00000052084977796873164510000018237494432750444206_" x="99" y="11.8" transform="matrix(6.773988e-02 -0.9977 0.9977 6.773988e-02 69.5247 376.7642)" width="274.6" height="278.7"/>
					</defs>
					<clipPath id="SVGID_00000071547962341660395330000017692468805161472178_">
						<use xlink:href="#SVGID_00000052084977796873164510000018237494432750444206_"  style="overflow:visible;"/>
					</clipPath>
					<g style="clip-path:url(#SVGID_00000071547962341660395330000017692468805161472178_);">
						<path class="st7" d="M242.4,66.1c15.7,14.6,23.8,35.3,22.4,56.7c-1.1,16.2-7.8,31.6-18.9,43.5c-12.9,13.8-30.4,21.8-49.4,22.5
							c-18.9,0.7-37-6.1-50.8-19c-15.7-14.6-23.8-35.3-22.4-56.7c1.1-16.2,7.8-31.6,18.9-43.5c12.9-13.8,30.4-21.8,49.4-22.5
							C210.5,46.4,228.6,53.2,242.4,66.1z M191.4,40.3c-20.7,0.7-39.9,9.5-54.1,24.6c-12.1,13-19.5,29.9-20.7,47.7
							c-1.6,23.4,7.3,46.1,24.5,62.1c15.2,14.2,34.9,21.5,55.7,20.8c20.7-0.7,39.9-9.5,54.1-24.6c12.1-13,19.5-29.9,20.7-47.7
							c1.6-23.4-7.3-46.1-24.5-62.1C231.9,47,212.1,39.6,191.4,40.3"/>
					</g>
				</g>
			</g>
		</g>
	</g>
</g>
<g>
	<defs>
		<rect id="SVGID_00000165953508067588075520000016546664641401408185_" x="175.6" y="98.2" width="20.2" height="20.2"/>
	</defs>
	<clipPath id="SVGID_00000096766019330852557310000015523733719074803607_">
		<use xlink:href="#SVGID_00000165953508067588075520000016546664641401408185_"  style="overflow:visible;"/>
	</clipPath>
	<g style="clip-path:url(#SVGID_00000096766019330852557310000015523733719074803607_);">
		<path class="st7" d="M195.6,108.2c0,0.7-0.1,1.3-0.2,1.9c-0.1,0.6-0.3,1.3-0.6,1.9c-0.2,0.6-0.6,1.2-0.9,1.7
			c-0.4,0.5-0.8,1.1-1.2,1.5c-0.5,0.5-1,0.9-1.5,1.2c-0.5,0.4-1.1,0.7-1.7,0.9c-0.6,0.2-1.2,0.4-1.9,0.6c-0.6,0.1-1.3,0.2-1.9,0.2
			s-1.3-0.1-2-0.2c-0.6-0.1-1.3-0.3-1.9-0.6c-0.6-0.2-1.2-0.6-1.7-0.9c-0.5-0.4-1.1-0.8-1.5-1.2c-0.5-0.5-0.9-1-1.2-1.5
			c-0.4-0.5-0.7-1.1-0.9-1.7c-0.3-0.6-0.4-1.2-0.6-1.9c-0.1-0.6-0.2-1.3-0.2-1.9c0-0.7,0.1-1.3,0.2-2c0.1-0.6,0.3-1.3,0.6-1.9
			c0.2-0.6,0.6-1.2,0.9-1.7c0.4-0.5,0.8-1.1,1.2-1.5c0.5-0.5,1-0.9,1.5-1.2s1.1-0.7,1.7-0.9c0.6-0.2,1.2-0.4,1.9-0.6
			c0.6-0.1,1.3-0.2,2-0.2s1.3,0.1,1.9,0.2c0.6,0.1,1.3,0.3,1.9,0.6c0.6,0.3,1.2,0.6,1.7,0.9s1.1,0.8,1.5,1.2c0.5,0.5,0.9,1,1.2,1.5
			c0.4,0.5,0.7,1.1,0.9,1.7c0.2,0.6,0.4,1.2,0.6,1.9C195.5,106.9,195.6,107.5,195.6,108.2z"/>
	</g>
</g>
<g>
	<g transform="translate(334.349743, 458.751262)">
		<g>
			<path class="st12" d="M163.5-354.7l-10.2,1.9l23.7,80.3l1.7,7.4h0.5l1.6-7.2l23.8-80.5l-10.1-1.9v-16.2h48.9v16.2l-11.2,1.5
				l-39.5,116.3h-27.6l-39.6-116.3l-11-1.5v-16.2h49V-354.7z"/>
		</g>
	</g>
</g>
<g>
	<g transform="translate(435.654025, 458.751262)">
		<g>
			<path class="st12" d="M198.7-235c-14.3,0-25.8-4.6-34.4-13.8c-8.6-9.2-12.9-20.9-12.9-35.1v-3.7c0-14.8,4.1-27,12.2-36.5
				c8.1-9.6,19-14.3,32.7-14.3c13.4,0,23.9,4.1,31.3,12.2c7.4,8.1,11.1,19,11.1,32.8v14.6h-59.5l-0.2,0.5c0.5,6.6,2.7,12,6.6,16.2
				c3.9,4.2,9.2,6.3,15.9,6.3c6,0,10.9-0.6,14.8-1.8c3.9-1.2,8.2-3.1,12.9-5.6l7.3,16.6c-4.1,3.2-9.4,6-16,8.2
				C214-236.1,206.7-235,198.7-235z M196.3-317.6c-5,0-8.9,1.9-11.8,5.7c-2.9,3.8-4.7,8.8-5.3,15l0.3,0.5h32.9v-2.4
				c0-5.7-1.3-10.2-4-13.6C205.7-315.9,201.7-317.6,196.3-317.6z"/>
		</g>
	</g>
</g>
<g>
	<g transform="translate(510.942152, 458.751262)">
		<g>
			<path class="st12" d="M279.2-320.3l-9.3,1.4L233.3-222c-2.9,7.2-6.7,13.2-11.5,18c-4.8,4.8-12.1,7.3-21.8,7.3
				c-2.3,0-4.4-0.2-6.4-0.6c-2-0.4-4.3-0.9-7-1.5l3.1-19.6c0.8,0.1,1.7,0.2,2.6,0.4c0.9,0.1,1.7,0.2,2.4,0.2c4.5,0,7.9-1.1,10.3-3.3
				c2.4-2.2,4.2-4.9,5.5-8.1l3-7.6l-31.6-82l-9.3-1.5v-16.2h48.8v16.2l-11.1,1.9l13.6,39.8l1.4,7.2l0.6,0.1l15.7-47l-11.2-1.9v-16.2
				h48.8V-320.3z"/>
		</g>
	</g>
</g>
<g>
	<g transform="translate(594.580291, 458.751262)">
		<g>
			<path class="st12" d="M321.3-370.9v35.7h-20.6l-1.1-15h-24.7v94.4l14.4,2.8v16.1h-55.6V-253l14.4-2.8v-94.4h-24.6l-1.1,15h-20.5
				v-35.7H321.3z"/>
		</g>
	</g>
</g>
<g>
	<g transform="translate(689.604812, 458.751262)">
		<g>
			<path class="st12" d="M283.3-235c-14.3,0-25.8-4.6-34.4-13.8c-8.6-9.2-12.9-20.9-12.9-35.1v-3.7c0-14.8,4.1-27,12.2-36.5
				c8.1-9.6,19-14.3,32.7-14.3c13.4,0,23.9,4.1,31.3,12.2c7.4,8.1,11.1,19,11.1,32.8v14.6h-59.5l-0.2,0.5c0.5,6.6,2.7,12,6.6,16.2
				c3.9,4.2,9.2,6.3,15.9,6.3c6,0,10.9-0.6,14.8-1.8c3.9-1.2,8.2-3.1,12.9-5.6l7.3,16.6c-4.1,3.2-9.4,6-16,8.2
				C298.6-236.1,291.4-235,283.3-235z M280.9-317.6c-5,0-8.9,1.9-11.8,5.7c-2.9,3.8-4.7,8.8-5.3,15l0.3,0.5H297v-2.4
				c0-5.7-1.3-10.2-4-13.6C290.4-315.9,286.3-317.6,280.9-317.6z"/>
		</g>
	</g>
</g>
<g>
	<g transform="translate(764.89294, 458.751262)">
		<g>
			<path class="st12" d="M257.9-364.3v-16.2h41.2v124.7l13,2.8v16.1h-52.8V-253l13-2.8v-105.8L257.9-364.3z"/>
		</g>
	</g>
</g>
</svg>
