<?xml version="1.0" encoding="UTF-8"?>
<svg id="Layer_1" data-name="Layer 1" xmlns="http://www.w3.org/2000/svg" version="1.1" viewBox="0 0 818.2 640.2">
  <defs>
    <style>
      .cls-1 {
        fill: #1d0054;
        stroke-width: 0px;
      }
    </style>
  </defs>
  <path class="cls-1" d="M205.8,418.4c-39.2-45.9-63-106-63-170.9s23.9-125.2,63-171.1C83.5,143.3,9.9,247.6,9.9,247.6c0,0,73.5,103.9,195.8,170.9h0Z"/>
  <path class="cls-1" d="M613.9,76.5c39.2,46.9,63,106.2,63,171.1-.8,41.9-10.5,81.3-27.6,116.4l20.1,20.1c88.8-63,140.5-136.8,140.5-136.8,0,0-73.7-104.1-196-170.9Z"/>
  <path class="cls-1" d="M461.9,237.1c-1-2.9-1.9-6.7-2.9-9.6-1-4-2.9-6.7-4.8-9.6-1.9-2.9-3.8-4.8-6.7-7.7-2.1-2.9-4.8-4.8-7.7-6.7-2.9-1.9-6.7-3.8-9.6-4.8-2.9-1-5.9-1.9-9.6-2.9s-6.7-1-10.5-1-7.5,0-10.5,1-5.9,1.9-9.6,2.9c-4,1-6.7,2.9-9.6,4.8-2.9,1.9-4.8,3.8-7.7,6.7-2.9,2.1-4.8,4.8-6.7,7.7-1.9,2.9-3.8,6.7-4.8,9.6s-1.9,5.9-2.9,9.6c-1,3.8-1,6.7-1,10.5s0,6.7,1,10.5c1,2.9,1.9,5.9,2.9,9.6,1,4,2.9,6.7,4.8,9.6,1.9,2.9,3.8,4.8,6.7,7.7,2.1,2.9,4.8,4.8,7.7,6.7s6.7,3.8,9.6,4.8c2.9,1,5.9,1.9,9.6,2.9s6.7,1,10.5,1,6.7,0,10.5-1c2.9-1,6.7-1.9,9.6-2.9,4-1,6.7-2.9,9.6-4.8,2.9-1.9,4.8-3.8,7.7-6.7,2.9-2.1,4.8-4.8,6.7-7.7s3.8-6.7,4.8-9.6,1.9-5.9,2.9-9.6c1-3.8,1-6.7,1-10.5s0-6.7-1-10.5ZM416.6,233.5c-.2,1.3-.6,2.7-1.3,4-.4,1.3-1.3,2.5-1.9,3.6-.8,1-1.7,2.3-2.5,3.1-1,1-2.1,1.9-3.1,2.5-1,.8-2.3,1.5-3.6,1.9-1.3.4-2.5.8-4,1.3-1.3,0-2.7.4-4,.4s-2.7-.2-4.2-.4c-1.3,0-2.7-.6-4-1.3-1.3-.4-2.5-1.3-3.6-1.9-1-.8-2.3-1.7-3.1-2.5s-1.9-2.1-2.5-3.1c-.8-1-1.5-2.3-1.9-3.6-.6-1.3-.8-2.5-1.3-4,0-1.3-.4-2.7-.4-4s0-2.7.4-4.2c.2-1.3.6-2.7,1.3-4,.4-1.3,1.3-2.5,1.9-3.6.8-1,1.7-2.3,2.5-3.1s2.1-1.9,3.1-2.5,2.3-1.5,3.6-1.9c1.3-.4,2.5-.8,4-1.3,1.3,0,2.7-.4,4.2-.4s2.7.2,4,.4,2.7.6,4,1.3,2.5,1.3,3.6,1.9,2.3,1.7,3.1,2.5,1.9,2.1,2.5,3.1c.8,1,1.5,2.3,1.9,3.6s.8,2.5,1.3,4c0,1.5.4,2.7.4,4.2s-.2,2.7-.4,4Z"/>
  <g>
    <path class="cls-1" d="M598,262.6c3.8-55.7-17.4-109.5-58.2-147.6-74.6-69.3-191.4-65.3-260.7,9-28.9,31-46.3,71.2-49.2,113.3-3.8,55.9,17.4,109.5,58.2,147.6,74.3,69.5,191.2,65.3,260.7-9,28.9-31,46.3-71.2,49.2-113.3ZM409.3,407.1c-88,0-159.6-70.8-159.6-159.6s71.6-159.6,159.6-159.6,159.6,71.6,159.6,159.6-71.6,159.6-159.6,159.6h0Z"/>
    <path class="cls-1" d="M558.4,386c-3.8,4.2-8,8.2-12.1,11.9l55.7,56.1,12.1-11.9-55.7-56.1Z"/>
    <path class="cls-1" d="M643,448.2c-1.9-2.1-4.6-3.1-7.3-3.1-2.7-.2-5.4,1-7.3,2.9l-20.7,20.5c-1.9,1.7-2.9,4.2-3.1,6.7-.2,2.9.8,5.9,2.9,8l121,122.5c1.9,2.1,4.6,3.1,7.3,3.1s5.4-1,7.3-2.9l20.7-20.5c1.9-1.7,2.9-4.2,3.1-6.7,0-2.9-.8-5.9-2.9-8l-121-122.5Z"/>
    <path class="cls-1" d="M778.3,531.3l-162.5-162.5c20.9-35.4,33.5-77.5,33.5-121.5,0-121.5-89.6-221.6-206.7-237.7-29.3-2-93.6-2-157.7,36.4-25.7,15.4-44.9,33.1-58.7,48.3-12.5,13.9-28,34.8-39.8,63.7-.5,1.2-2,5-3.7,9.8-13.2,37.4-13.4,79.7-13.4,79.7,0,16.7,1.4,66,29.4,120.1,6.6,12.8,14.1,23.9,14.1,23.9s11.8,17.3,27.3,32.4c13.1,12.7,62,52.7,135.7,61.7,76.3,9.3,134.6-20.1,155-31.6l162.5,162.5c10.5,10.5,25.8,17.2,42.1,17.2,24.2,0,44.9-14,54.5-34.4,2.4-5.1,5.9-14.2,5.8-25.9-.2-22.6-13.5-37.9-17.4-42.1ZM778.7,589.5l-2.3,2.7c-.8,1-1.7,2.1-2.7,3.1l-20.7,20.5c-4.6,4.6-10.9,7.1-17.4,7.1s-12.8-2.7-17.4-7.3l-121-122.5c-5-5-7.5-11.9-7.1-19.1,0-3.4,1.3-6.5,2.7-9.4l-57.4-57.8c-75.6,58.6-184.9,55.5-257.2-11.7-43.8-41-66.6-99.1-62.6-159,3.1-45.2,22-88.6,53-121.9,74.8-80,200.6-84.4,280.6-10.1,43.8,41,66.6,99.1,62.6,159-2.7,40.8-18.4,80.2-44.2,111.8l57.4,57.8c3.4-1.5,6.7-2.3,10.5-2.3,6.5,0,12.8,2.7,17.4,7.3l121,122.5c1.7,1.7,3.1,3.6,4.2,5.7h0c4.8,7.5,5.7,16.1.4,23.2l.2.2Z"/>
  </g>
  <path class="cls-1" d="M523.6,512.8"/>
</svg>