<?xml version="1.0" encoding="UTF-8"?>
<svg id="Layer_1" data-name="Layer 1" xmlns="http://www.w3.org/2000/svg" version="1.1" viewBox="0 0 818.2 640.2">
  <defs>
    <style>
      .cls-1 {
        fill: #1d0054;
      }

      .cls-1, .cls-2 {
        stroke-width: 0px;
      }

      .cls-2 {
        fill: #bdd3f6;
      }
    </style>
  </defs>
  <path class="cls-1" d="M462.2,246.8c0,3.8,0,6.7-1,10.5-1,3.8-1.9,6.7-2.9,9.6s-2.9,6.7-4.8,9.6c-1.9,2.9-3.8,5.7-6.7,7.7-2.9,2.9-4.8,4.8-7.7,6.7s-5.7,3.8-9.6,4.8c-2.9,1-6.7,1.9-9.6,2.9-3.8,1-6.7,1-10.5,1s-6.7,0-10.5-1c-3.8-1-6.7-1.9-9.6-2.9-2.9-1-6.7-2.9-9.6-4.8-2.9-1.9-5.7-3.8-7.7-6.7-2.9-2.9-4.8-4.8-6.7-7.7s-3.8-5.7-4.8-9.6c-1-3.8-1.9-6.7-2.9-9.6-1-3.8-1-6.7-1-10.5s0-6.7,1-10.5,1.9-6.7,2.9-9.6,2.9-6.7,4.8-9.6c1.9-2.9,3.8-5.7,6.7-7.7,2.9-2.9,4.8-4.8,7.7-6.7,2.9-1.9,5.7-3.8,9.6-4.8,3.8-1,6.7-1.9,9.6-2.9,2.9-1,6.7-1,10.5-1s6.7,0,10.5,1,6.7,1.9,9.6,2.9c2.9,1,6.7,2.9,9.6,4.8,2.9,1.9,5.7,3.8,7.7,6.7,2.9,2.9,4.8,4.8,6.7,7.7,1.9,2.9,3.8,5.7,4.8,9.6,1,2.9,1.9,6.7,2.9,9.6,1,3.8,1,6.5,1,10.5Z"/>
  <path class="cls-1" d="M205.1,417.7c-39.2-45.9-63-106-63-170.9s23.9-125.2,63-171.1C82.8,142.5,9.3,246.8,9.3,246.8c0,0,73.5,103.9,195.8,170.9h0Z"/>
  <path class="cls-1" d="M613.2,75.7c39.2,46.9,63,106.2,63,171.1-.8,41.9-10.5,81.3-27.6,116.4l20.1,20.1c88.8-63,140.5-136.8,140.5-136.8,0,0-73.7-104.1-196-170.9Z"/>
  <path class="cls-2" d="M652.2,437.1c-4.6-4.6-10.9-7.3-17.4-7.3s-7.1.8-10.5,2.3l-57.4-57.8c25.8-31.6,41.5-71,44.2-111.8,4-59.9-18.8-117.9-62.6-159-80-74.3-205.9-69.9-280.6,10.1-31,33.3-49.8,76.6-53,121.9-4,59.9,18.8,117.9,62.6,159,72.3,67.2,181.6,70.4,257.2,11.7l57.4,57.8c-1.5,2.9-2.5,6.1-2.7,9.4-.4,7.1,2.1,14,7.1,19.1l121,122.5c4.6,4.6,10.9,7.3,17.4,7.3s12.8-2.5,17.4-7.1l20.7-20.5c1-1,1.9-2.1,2.7-3.1l1.7-26.2c-1-2.1-2.5-4-4.2-5.7l-121-122.5h0ZM287.4,384.2c-40.8-38.1-62-91.7-58.2-147.6,2.9-42.1,20.3-82.3,49.2-113.3,69.3-74.3,186.2-78.3,260.7-9,40.8,38.1,62,91.9,58.2,147.6-2.9,42.1-20.3,82.3-49.2,113.3-69.5,74.3-186.4,78.5-260.7,9h0ZM545.6,397.1c4.2-3.8,8.4-7.7,12.1-11.9l55.7,56.1-12.1,11.9-55.7-56.1ZM763.2,584.6l-20.7,20.5c-1.9,1.9-4.6,3.1-7.3,2.9-2.7,0-5.4-1-7.3-3.1l-121-122.5c-2.1-2.1-3.1-5-2.9-8,0-2.5,1.3-5,3.1-6.7l20.7-20.5c1.9-1.9,4.6-3.1,7.3-2.9,2.7,0,5.4,1,7.3,3.1l121,122.5c2.1,2.1,3.1,5,2.9,8-.2,2.5-1.3,5-3.1,6.7h0Z"/>
  <path class="cls-2" d="M290.1,133.9c-25.3,27.2-40.8,62.6-43.4,99.9-3.4,49,15.3,96.5,51.3,130.1,31.8,29.7,73.1,45,116.6,43.6,43.4-1.5,83.6-19.9,113.3-51.5,25.3-27.2,40.8-62.6,43.4-99.9,3.4-49-15.3-96.5-51.3-130.1-31.8-29.5-73.3-45-116.6-43.6h0c-43.4,1.5-83.6,19.9-113.3,51.5h0ZM403.8,96.6c39.6-1.5,77.5,12.8,106.4,39.8h0c32.9,30.6,49.8,73.9,46.9,118.7-2.3,33.9-16.3,66.2-39.6,91.1-27,28.9-63.7,45.7-103.5,47.1-39.6,1.5-77.5-12.8-106.4-39.8-32.9-30.6-49.8-73.9-46.9-118.7,2.3-33.9,16.3-66.2,39.6-91.1,27-28.9,63.7-45.7,103.5-47.1h0Z"/>
  <path class="cls-2" d="M387.5,209.5c-1.3.4-2.5,1.3-3.6,1.9s-2.1,1.5-3.1,2.5-1.7,2.1-2.5,3.1c-.6,1-1.5,2.3-1.9,3.6-.6,1.3-1,2.7-1.3,4,0,1.5-.4,2.7-.4,4.2s0,2.7.4,4c.4,1.5.6,2.7,1.3,4,.4,1.3,1,2.5,1.9,3.6.6,1,1.5,2.1,2.5,3.1s2.1,1.7,3.1,2.5c1,.6,2.3,1.5,3.6,1.9,1.3.6,2.7,1,4,1.3,1.5,0,2.9.4,4.2.4s2.7,0,4-.4c1.5-.4,2.7-.8,4-1.3,1.3-.4,2.5-1,3.6-1.9,1-.6,2.1-1.5,3.1-2.5.8-.8,1.7-2.1,2.5-3.1.6-1,1.5-2.3,1.9-3.6.6-1.3,1-2.7,1.3-4,0-1.3.4-2.5.4-4s-.2-2.7-.4-4.2c-.4-1.5-.8-2.7-1.3-4-.4-1.3-1-2.5-1.9-3.6-.6-1-1.5-2.1-2.5-3.1-.8-.8-2.1-1.9-3.1-2.5s-2.3-1.3-3.6-1.9c-1.3-.6-2.7-1-4-1.3s-2.5-.4-4-.4-2.9,0-4.2.4c-1.5.4-2.7.8-4,1.3Z"/>
  <path class="cls-2" d="M777.4,565.3h0l-1.7,26.2,2.3-2.7c5.2-7.3,4.4-15.7-.4-23.2h-.2v-.2Z"/>
  <g>
    <path class="cls-1" d="M597.1,261.9c3.8-55.7-17.4-109.5-58.2-147.6-74.6-69.3-191.4-65.3-260.7,9-28.9,31-46.3,71.2-49.2,113.3-3.8,55.9,17.4,109.5,58.2,147.6,74.3,69.5,191.2,65.3,260.7-9,28.9-31,46.3-71.2,49.2-113.3ZM408.4,406.4c-88,0-159.6-70.8-159.6-159.6s71.6-159.6,159.6-159.6,159.6,71.6,159.6,159.6-71.6,159.6-159.6,159.6h0Z"/>
    <path class="cls-1" d="M557.5,385.2c-3.8,4.2-8,8.2-12.1,11.9l55.7,56.1,12.1-11.9-55.7-56.1Z"/>
    <path class="cls-1" d="M642.1,447.4c-1.9-2.1-4.6-3.1-7.3-3.1-2.7-.2-5.4,1-7.3,2.9l-20.7,20.5c-1.9,1.7-2.9,4.2-3.1,6.7-.2,2.9.8,5.9,2.9,8l121,122.5c1.9,2.1,4.6,3.1,7.3,3.1s5.4-1,7.3-2.9l20.7-20.5c1.9-1.7,2.9-4.2,3.1-6.7,0-2.9-.8-5.9-2.9-8l-121-122.5Z"/>
    <path class="cls-1" d="M777.4,530.5l-162.5-162.5c20.9-35.4,33.5-77.5,33.5-121.5,0-121.5-89.6-221.6-206.7-237.7-29.3-1.9-93.6-2.1-157.7,36.4-25.8,15.3-45,33.1-58.6,48.4-12.6,14-28.1,34.8-39.8,63.7-.4,1.3-2.1,5-3.8,9.8-13.2,37.5-13.4,79.8-13.4,79.8,0,16.8,1.5,66,29.3,120,6.7,12.8,14,23.9,14,23.9,0,0,11.9,17.4,27.4,32.5,13.2,12.8,62,52.8,135.7,61.8,76.2,9.4,134.7-20.1,155-31.6l162.5,162.5c10.5,10.5,25.8,17.2,42.1,17.2,24.3,0,44.8-14,54.5-34.3,2.3-5,5.9-14.2,5.9-26,0-22.6-13.4-37.9-17.4-42.1v-.2ZM777.9,588.8l-2.3,2.7c-.8,1-1.7,2.1-2.7,3.1l-20.7,20.5c-4.6,4.6-10.9,7.1-17.4,7.1s-12.8-2.7-17.4-7.3l-121-122.5c-5-5-7.5-11.9-7.1-19.1,0-3.4,1.3-6.5,2.7-9.4l-57.4-57.8c-75.6,58.6-184.9,55.5-257.2-11.7-43.8-41-66.6-99.1-62.6-159,3.1-45.2,22-88.6,53-121.9,74.8-80,200.6-84.4,280.6-10.1,43.8,41,66.6,99.1,62.6,159-2.7,40.8-18.4,80.2-44.2,111.8l57.4,57.8c3.4-1.5,6.7-2.3,10.5-2.3,6.5,0,12.8,2.7,17.4,7.3l121,122.5c1.7,1.7,3.1,3.6,4.2,5.7h0c4.8,7.5,5.7,16.1.4,23.2h.2v.2Z"/>
  </g>
</svg>