<?xml version="1.0" encoding="UTF-8"?>
<svg id="Layer_1" data-name="Layer 1" xmlns="http://www.w3.org/2000/svg" version="1.1" viewBox="0 0 1226 303.1">
  <defs>
    <style>
      .cls-1 {
        fill: #1d0054;
      }

      .cls-1, .cls-2, .cls-3 {
        stroke-width: 0px;
      }

      .cls-2 {
        display: none;
      }

      .cls-2, .cls-3 {
        fill: #bdd3f6;
      }
    </style>
  </defs>
  <path class="cls-1" d="M94.7,198.4c-18.7-21.9-30.1-50.6-30.1-81.6s11.4-59.8,30.1-81.7C36.3,67,1.2,116.8,1.2,116.8c0,0,35.1,49.6,93.5,81.6h0Z"/>
  <path class="cls-1" d="M289.6,35.1c18.7,22.4,30.1,50.7,30.1,81.7-.4,20-5,38.8-13.2,55.6l9.6,9.6c42.4-30.1,67.1-65.3,67.1-65.3,0,0-35.2-49.7-93.6-81.6Z"/>
  <path class="cls-2" d="M308.2,207.7c-2.2-2.2-5.2-3.5-8.3-3.5s-3.4.4-5,1.1l-27.4-27.6c12.3-15.1,19.8-33.9,21.1-53.4,1.9-28.6-9-56.3-29.9-75.9-38.2-35.5-98.3-33.4-134,4.8-14.8,15.9-23.8,36.6-25.3,58.2-1.9,28.6,9,56.3,29.9,75.9,34.5,32.1,86.7,33.6,122.8,5.6l27.4,27.6c-.7,1.4-1.2,2.9-1.3,4.5-.2,3.4,1,6.7,3.4,9.1l57.8,58.5c2.2,2.2,5.2,3.5,8.3,3.5s6.1-1.2,8.3-3.4l9.9-9.8c.5-.5.9-1,1.3-1.5l.8-12.5c-.5-1-1.2-1.9-2-2.7l-57.8-58.5h0ZM134,182.4c-19.5-18.2-29.6-43.8-27.8-70.5,1.4-20.1,9.7-39.3,23.5-54.1,33.1-35.5,88.9-37.4,124.5-4.3,19.5,18.2,29.6,43.9,27.8,70.5-1.4,20.1-9.7,39.3-23.5,54.1-33.2,35.5-89,37.5-124.5,4.3h0ZM257.3,188.6c2-1.8,4-3.7,5.8-5.7l26.6,26.8-5.8,5.7-26.6-26.8ZM361.2,278.1l-9.9,9.8c-.9.9-2.2,1.5-3.5,1.4-1.3,0-2.6-.5-3.5-1.5l-57.8-58.5c-1-1-1.5-2.4-1.4-3.8,0-1.2.6-2.4,1.5-3.2l9.9-9.8c.9-.9,2.2-1.5,3.5-1.4,1.3,0,2.6.5,3.5,1.5l57.8,58.5c1,1,1.5,2.4,1.4,3.8-.1,1.2-.6,2.4-1.5,3.2h0Z"/>
  <path class="cls-2" d="M135.3,62.9c-12.1,13-19.5,29.9-20.7,47.7-1.6,23.4,7.3,46.1,24.5,62.1,15.2,14.2,34.9,21.5,55.7,20.8,20.7-.7,39.9-9.5,54.1-24.6,12.1-13,19.5-29.9,20.7-47.7,1.6-23.4-7.3-46.1-24.5-62.1-15.2-14.1-35-21.5-55.7-20.8h0c-20.7.7-39.9,9.5-54.1,24.6h0ZM189.6,45.1c18.9-.7,37,6.1,50.8,19h0c15.7,14.6,23.8,35.3,22.4,56.7-1.1,16.2-7.8,31.6-18.9,43.5-12.9,13.8-30.4,21.8-49.4,22.5-18.9.7-37-6.1-50.8-19-15.7-14.6-23.8-35.3-22.4-56.7,1.1-16.2,7.8-31.6,18.9-43.5,12.9-13.8,30.4-21.8,49.4-22.5h0Z"/>
  <path class="cls-1" d="M217,111.8c-.5-1.4-.9-3.2-1.4-4.6-.5-1.9-1.4-3.2-2.3-4.6-.9-1.4-1.8-2.3-3.2-3.7-1-1.4-2.3-2.3-3.7-3.2-1.4-.9-3.2-1.8-4.6-2.3-1.4-.5-2.8-.9-4.6-1.4s-3.2-.5-5-.5-3.6,0-5,.5c-1.4.5-2.8.9-4.6,1.4-1.9.5-3.2,1.4-4.6,2.3-1.4.9-2.3,1.8-3.7,3.2-1.4,1-2.3,2.3-3.2,3.7-.9,1.4-1.8,3.2-2.3,4.6-.5,1.4-.9,2.8-1.4,4.6-.5,1.8-.5,3.2-.5,5s0,3.2.5,5c.5,1.4.9,2.8,1.4,4.6.5,1.9,1.4,3.2,2.3,4.6.9,1.4,1.8,2.3,3.2,3.7,1,1.4,2.3,2.3,3.7,3.2s3.2,1.8,4.6,2.3c1.4.5,2.8.9,4.6,1.4s3.2.5,5,.5,3.2,0,5-.5c1.4-.5,3.2-.9,4.6-1.4,1.9-.5,3.2-1.4,4.6-2.3,1.4-.9,2.3-1.8,3.7-3.2,1.4-1,2.3-2.3,3.2-3.7.9-1.4,1.8-3.2,2.3-4.6s.9-2.8,1.4-4.6c.5-1.8.5-3.2.5-5s0-3.2-.5-5ZM195.4,110.1c0,.6-.3,1.3-.6,1.9-.2.6-.6,1.2-.9,1.7-.4.5-.8,1.1-1.2,1.5s-1,.9-1.5,1.2c-.5.4-1.1.7-1.7.9-.6.2-1.2.4-1.9.6-.6.2-1.3.2-1.9.2s-1.3-.2-2-.2c-.6,0-1.3-.3-1.9-.6-.6-.2-1.2-.6-1.7-.9-.5-.4-1-.7-1.5-1.2s-.9-1-1.2-1.5c-.4-.5-.7-1.1-.9-1.7-.3-.6-.4-1.2-.6-1.9-.2-.6-.2-1.2-.2-1.9s.2-1.3.2-2c0-.6.3-1.3.6-1.9.2-.6.6-1.2.9-1.7.4-.5.7-1,1.2-1.5s1-.9,1.5-1.2,1.1-.7,1.7-.9c.6-.2,1.2-.4,1.9-.6.6-.2,1.3-.2,2-.2s1.3.1,1.9.2c.6,0,1.3.3,1.9.6.6.3,1.2.6,1.7.9s1.1.8,1.5,1.2.9,1,1.2,1.5c.4.5.7,1.1.9,1.7.2.6.4,1.2.6,1.9.1.7.2,1.3.2,2s-.2,1.3-.2,1.9Z"/>
  <path class="cls-1" d="M463.3,53.9l-13.5,2.6,31.3,106,2.2,9.7h.6l2.1-9.5,31.3-106.2-13.4-2.6v-21.3h64.6v21.4l-14.7,2-52.1,153.4h-36.4l-52.2-153.4-14.5-2v-21.4h64.6v21.4h0v-.2h.1Z"/>
  <path class="cls-1" d="M643.5,211.8c-18.8,0-34.1-6.1-45.5-18.2-11.3-12.1-17-27.6-17-46.2v-4.9c0-19.4,5.4-35.5,16.1-48.2s25-18.8,43.2-18.8,31.6,5.4,41.3,16.1c9.7,10.7,14.6,25,14.6,43.3v19.2h-78.5l-.3.6c.6,8.8,3.6,15.8,8.8,21.4s12.1,8.4,21,8.4,14.3-.8,19.4-2.4,10.9-4.2,17-7.3l9.6,21.8c-5.4,4.2-12.3,7.9-21,10.9-8.6,3-18.2,4.5-28.7,4.5h0v-.2h0ZM640.4,102.8c-6.6,0-11.8,2.6-15.6,7.5s-6.2,11.6-7,19.9l.4.6h43.4v-3.1c0-7.5-1.8-13.5-5.3-18-3.6-4.6-8.9-6.9-15.9-6.9h0Z"/>
  <path class="cls-1" d="M848.9,99.2l-12.3,1.9-48.3,127.9c-3.8,9.5-8.9,17.5-15.2,23.8-6.4,6.4-15.9,9.6-28.7,9.6s-5.7-.3-8.5-.8c-2.6-.5-5.7-1.1-9.3-2l4.2-25.8c1,.2,2.2.3,3.4.5,1.1.2,2.2.3,3.1.3,6,0,10.4-1.5,13.5-4.3,3.1-2.9,5.5-6.5,7.2-10.7l4-10-41.6-108.2-12.3-2v-21.4h64.4v21.4l-14.6,2.6,18,52.6,1.9,9.5h.8c0,.2,20.7-61.9,20.7-61.9l-14.7-2.6v-21.4h64.4v21.2h.2l-.2-.3Z"/>
  <path class="cls-1" d="M1014.8,32.4v47h-27.2l-1.5-19.9h-32.5v124.6l19,3.8v21.2h-73.4v-21.2l19-3.8V59.8h-32.5l-1.5,19.9h-27.1v-47.2h157.6-.1Z"/>
  <path class="cls-1" d="M1090.1,211.8c-18.8,0-34.1-6.1-45.5-18.2-11.3-12.1-17-27.6-17-46.2v-4.9c0-19.4,5.4-35.5,16.1-48.2s25-18.8,43.2-18.8,31.6,5.4,41.3,16.1c9.7,10.7,14.6,25,14.6,43.3v19.2h-78.5l-.3.6c.6,8.8,3.6,15.8,8.8,21.4s12.1,8.4,21,8.4,14.3-.8,19.4-2.4,10.9-4.2,17-7.3l9.6,21.8c-5.4,4.2-12.3,7.9-21,10.9-8.6,3-18.1,4.5-28.7,4.5h0v-.2h0ZM1086.8,102.8c-6.6,0-11.8,2.6-15.6,7.5-3.8,5-6.2,11.6-7,19.9l.4.6h43.4v-3.1c0-7.5-1.8-13.5-5.3-18-3.4-4.6-8.9-6.9-15.9-6.9h0Z"/>
  <path class="cls-1" d="M1158.2,52.7v-20h50.8v153.5l16,3.4v19.9h-65v-19.9l16-3.4V56.1l-17.8-3.3h0Z"/>
  <path class="cls-3" d="M368,268.9h0l-.8,12.5,1.1-1.3c2.5-3.5,2.1-7.5-.2-11.1h-.1Z"/>
  <g>
    <path class="cls-1" d="M281.9,124c1.8-26.6-8.3-52.3-27.8-70.5-35.6-33.1-91.4-31.2-124.5,4.3-13.8,14.8-22.1,34-23.5,54.1-1.8,26.7,8.3,52.3,27.8,70.5,35.5,33.2,91.3,31.2,124.5-4.3,13.8-14.8,22.1-34,23.5-54.1ZM191.8,193c-42,0-76.2-33.8-76.2-76.2s34.2-76.2,76.2-76.2,76.2,34.2,76.2,76.2-34.2,76.2-76.2,76.2h0Z"/>
    <path class="cls-1" d="M263,182.9c-1.8,2-3.8,3.9-5.8,5.7l26.6,26.8,5.8-5.7-26.6-26.8Z"/>
    <path class="cls-1" d="M303.4,212.6c-.9-1-2.2-1.5-3.5-1.5-1.3-.1-2.6.5-3.5,1.4l-9.9,9.8c-.9.8-1.4,2-1.5,3.2-.1,1.4.4,2.8,1.4,3.8l57.8,58.5c.9,1,2.2,1.5,3.5,1.5s2.6-.5,3.5-1.4l9.9-9.8c.9-.8,1.4-2,1.5-3.2,0-1.4-.4-2.8-1.4-3.8l-57.8-58.5Z"/>
    <path class="cls-1" d="M368,252.3l-77.6-77.6c10-16.9,16-37,16-58,0-58-42.8-105.8-98.7-113.5-14-.9-44.7-1-75.3,17.4-12.3,7.3-21.5,15.8-28,23.1-6,6.7-13.4,16.6-19,30.4-.2.6-1,2.4-1.8,4.7-6.3,17.9-6.4,38.1-6.4,38.1,0,8,.7,31.5,14,57.3,3.2,6.1,6.7,11.4,6.7,11.4,0,0,5.7,8.3,13.1,15.5,6.3,6.1,29.6,25.2,64.8,29.5,36.4,4.5,64.3-9.6,74-15.1l77.6,77.6c5,5,12.3,8.2,20.1,8.2,11.6,0,21.4-6.7,26-16.4,1.1-2.4,2.8-6.8,2.8-12.4,0-10.8-6.4-18.1-8.3-20.1h0ZM368.2,280.1l-1.1,1.3c-.4.5-.8,1-1.3,1.5l-9.9,9.8c-2.2,2.2-5.2,3.4-8.3,3.4s-6.1-1.3-8.3-3.5l-57.8-58.5c-2.4-2.4-3.6-5.7-3.4-9.1,0-1.6.6-3.1,1.3-4.5l-27.4-27.6c-36.1,28-88.3,26.5-122.8-5.6-20.9-19.6-31.8-47.3-29.9-75.9,1.5-21.6,10.5-42.3,25.3-58.2,35.7-38.2,95.8-40.3,134-4.8,20.9,19.6,31.8,47.3,29.9,75.9-1.3,19.5-8.8,38.3-21.1,53.4l27.4,27.6c1.6-.7,3.2-1.1,5-1.1,3.1,0,6.1,1.3,8.3,3.5l57.8,58.5c.8.8,1.5,1.7,2,2.7h0c2.3,3.6,2.7,7.7.2,11.1h.1Z"/>
  </g>
  <path class="cls-3" d="M-69.2,71.5"/>
  <path class="cls-3" d="M172.7-31.5"/>
</svg>