<?xml version="1.0" encoding="UTF-8"?>
<svg id="main" xmlns="http://www.w3.org/2000/svg" version="1.1" viewBox="0 0 1226 303.1">
  <defs>
    <style>
      .cls-1 {
        fill: #bed1ec;
      }

      .cls-1, .cls-2, .cls-3, .cls-4 {
        stroke-width: 0px;
      }

      .cls-2 {
        fill: #bfd1ec;
      }

      .cls-3 {
        fill: #1d0054;
      }

      .cls-4 {
        fill: #fff;
      }
    </style>
  </defs>
  <path class="cls-3" d="M348.5,302.1c-7.2,0-14.4-2.7-19.8-8.2l-81-81.2c-10.9-10.9-10.9-28.7,0-39.6,10.9-10.9,28.7-10.9,39.6,0l81,81.2c10.9,10.9,10.9,28.7,0,39.6-5.5,5.5-12.6,8.2-19.8,8.2Z"/>
  <path class="cls-3" d="M192.5,3.9c-63.5,0-115,51.5-115,115s51.5,115,115,115,115-51.5,115-115S256.1,3.9,192.5,3.9ZM194.1,194.2c-41.4,0-75-33.6-75-75s33.6-75,75-75,75,33.6,75,75-33.6,75-75,75Z"/>
  <path class="cls-2" d="M194.1,197.5c-43.3,0-78.5-35.2-78.5-78.5s35.2-78.5,78.5-78.5,78.5,35.2,78.5,78.5-35.2,78.5-78.5,78.5ZM194.1,47.5c-39.4,0-71.5,32.1-71.5,71.5s32.1,71.5,71.5,71.5,71.5-32.1,71.5-71.5-32.1-71.5-71.5-71.5Z"/>
  <path class="cls-2" d="M194.5,212.7c-51.6,0-93.5-41.9-93.5-93.5S143,25.7,194.5,25.7s93.5,41.9,93.5,93.5-41.9,93.5-93.5,93.5ZM194.5,32.7c-47.7,0-86.5,38.8-86.5,86.5s38.8,86.5,86.5,86.5,86.5-38.8,86.5-86.5-38.8-86.5-86.5-86.5Z"/>
  <path class="cls-2" d="M345.1,295c-2.3,0-4.5-.9-6.3-2.6l-63.1-63.2c-1.7-1.7-2.6-3.9-2.6-6.3,0-2.4.9-4.6,2.6-6.3l15.5-15.5c1.7-1.7,3.9-2.6,6.3-2.6h0c2.4,0,4.6.9,6.3,2.6l63.1,63.2c3.5,3.5,3.5,9.1,0,12.5l-15.5,15.5c-1.7,1.7-4,2.6-6.3,2.6ZM297.6,205.6c-.5,0-1,.2-1.3.5l-15.5,15.5c-.4.4-.5.8-.5,1.3,0,.5.2,1,.5,1.3l63.1,63.2c.7.7,1.9.7,2.6,0l15.5-15.5c.7-.7.7-1.9,0-2.6l-63.1-63.2c-.4-.4-.8-.5-1.3-.5h0Z"/>
  <rect class="cls-2" x="261.9" y="185.6" width="7" height="37.9" transform="translate(-67.4 243.7) rotate(-44.3)"/>
  <rect class="cls-2" x="274" y="171.6" width="7" height="37.7" transform="translate(-53.9 249.4) rotate(-44.6)"/>
  <circle class="cls-3" cx="192.5" cy="117" r="25.5"/>
  <circle class="cls-1" cx="184.6" cy="108" r="10.5"/>
  <path class="cls-3" d="M306.8,172.9l9.6,9.6c42.4-30.1,67.1-65.3,67.1-65.3,0,0-35.2-49.7-93.6-81.6,18.7,22.4,30.1,50.7,30.1,81.7-.4,20-5,38.8-13.2,55.6Z"/>
  <path class="cls-3" d="M64.9,117.3c0-31,11.4-59.8,30.1-81.7C36.6,67.5,1.5,117.3,1.5,117.3c0,0,35.1,49.7,93.6,81.7-18.8-21.9-30.2-50.7-30.2-81.7Z"/>
  <path id="V" class="cls-4" d="M463.3,53.9l-13.5,2.6,31.3,106,2.2,9.7h.6l2.1-9.5,31.3-106.2-13.4-2.6v-21.3h64.6v21.4l-14.7,2-52.1,153.4h-36.4l-52.2-153.4-14.5-2v-21.4h64.6v21.4h0v-.2h.1Z"/>
  <path id="E" class="cls-4" d="M643.5,211.8c-18.8,0-34.1-6.1-45.5-18.2-11.3-12.1-17-27.6-17-46.2v-4.9c0-19.4,5.4-35.5,16.1-48.2s25-18.8,43.2-18.8,31.6,5.4,41.3,16.1,14.6,25,14.6,43.3v19.2h-78.5l-.3.6c.6,8.8,3.6,15.8,8.8,21.4s12.1,8.4,21,8.4,14.3-.8,19.4-2.4,10.9-4.2,17-7.3l9.6,21.8c-5.4,4.2-12.3,7.9-21,10.9-8.6,3-18.2,4.5-28.7,4.5h0v-.2h0ZM640.4,102.8c-6.6,0-11.8,2.6-15.6,7.5s-6.2,11.6-7,19.9l.4.6h43.4v-3.1c0-7.5-1.8-13.5-5.3-18-3.6-4.6-8.9-6.9-15.9-6.9h0Z"/>
  <path id="Y" class="cls-4" d="M848.9,99.2l-12.3,1.9-48.3,127.9c-3.8,9.5-8.9,17.5-15.2,23.8-6.4,6.4-15.9,9.6-28.7,9.6s-5.7-.3-8.5-.8c-2.6-.5-5.7-1.1-9.3-2l4.2-25.8c1,.2,2.2.3,3.4.5,1.1.2,2.2.3,3.1.3,6,0,10.4-1.5,13.5-4.3,3.1-2.9,5.5-6.5,7.2-10.7l4-10-41.6-108.2-12.3-2v-21.4h64.4v21.4l-14.6,2.6,18,52.6,1.9,9.5h.8c0,.2,20.7-61.9,20.7-61.9l-14.7-2.6v-21.4h64.4v21.2h.2l-.2-.3h-.1Z"/>
  <path id="T" class="cls-4" d="M1014.8,32.4v47h-27.2l-1.5-19.9h-32.5v124.6l19,3.8v21.2h-73.4v-21.2l19-3.8V59.8h-32.5l-1.5,19.9h-27.1v-47.2h157.6,0,.2Z"/>
  <path id="E-2" data-name="E" class="cls-4" d="M1090.1,211.8c-18.8,0-34.1-6.1-45.5-18.2-11.3-12.1-17-27.6-17-46.2v-4.9c0-19.4,5.4-35.5,16.1-48.2s25-18.8,43.2-18.8,31.6,5.4,41.3,16.1c9.7,10.7,14.6,25,14.6,43.3v19.2h-78.5l-.3.6c.6,8.8,3.6,15.8,8.8,21.4s12.1,8.4,21,8.4,14.3-.8,19.4-2.4,10.9-4.2,17-7.3l9.6,21.8c-5.4,4.2-12.3,7.9-21,10.9-8.6,3-18.1,4.5-28.7,4.5h0v-.2h0ZM1086.8,102.8c-6.6,0-11.8,2.6-15.6,7.5-3.8,5-6.2,11.6-7,19.9l.4.6h43.4v-3.1c0-7.5-1.8-13.5-5.3-18-3.4-4.6-8.9-6.9-15.9-6.9h0Z"/>
  <path id="L" class="cls-4" d="M1158.2,52.7v-20h50.8v153.5l16,3.4v19.9h-65v-19.9l16-3.4V56.1l-17.8-3.3h0Z"/>
</svg>