<?xml version="1.0" encoding="UTF-8"?>
<svg id="main" xmlns="http://www.w3.org/2000/svg" viewBox="0 0 1223.5 298.17">
  <defs>
    <style>
      .cls-1 {
        fill: #1d0054;
        stroke-width: 0px;
      }
    </style>
  </defs>
  <path class="cls-1" d="M190.99,87.59c-14.08,0-25.5,11.42-25.5,25.5s11.42,25.5,25.5,25.5,25.5-11.42,25.5-25.5-11.42-25.5-25.5-25.5ZM183.11,114.55c-5.8,0-10.5-4.7-10.5-10.5s4.7-10.5,10.5-10.5,10.5,4.7,10.5,10.5-4.7,10.5-10.5,10.5Z"/>
  <path class="cls-1" d="M305.3,169.02l9.6,9.6c42.4-30.1,67.1-65.3,67.1-65.3,0,0-35.2-49.7-93.6-81.6,18.7,22.4,30.1,50.7,30.1,81.7-.4,20-5,38.8-13.2,55.6Z"/>
  <path class="cls-1" d="M63.4,113.42c0-31,11.4-59.8,30.1-81.7C35.1,63.62,0,113.42,0,113.42c0,0,35.1,49.7,93.6,81.7-18.8-21.9-30.2-50.7-30.2-81.7Z"/>
  <path id="V" class="cls-1" d="M461.8,49.99l-13.5,2.6,31.3,106,2.2,9.7h.6l2.1-9.5,31.3-106.2-13.4-2.6v-21.3h64.6v21.4l-14.7,2-52.1,153.4h-36.4l-52.2-153.4-14.5-2v-21.4h64.6v21.4h0v-.2h.1v.1Z"/>
  <path id="E" class="cls-1" d="M642,207.89c-18.8,0-34.1-6.1-45.5-18.2-11.3-12.1-17-27.6-17-46.2v-4.9c0-19.4,5.4-35.5,16.1-48.2s25-18.8,43.2-18.8,31.6,5.4,41.3,16.1,14.6,25,14.6,43.3v19.2h-78.5l-.3.6c.6,8.8,3.6,15.8,8.8,21.4s12.1,8.4,21,8.4,14.3-.8,19.4-2.4,10.9-4.2,17-7.3l9.6,21.8c-5.4,4.2-12.3,7.9-21,10.9-8.6,3-18.2,4.5-28.7,4.5h0v-.2h0ZM638.9,98.89c-6.6,0-11.8,2.6-15.6,7.5s-6.2,11.6-7,19.9l.4.6h43.4v-3.1c0-7.5-1.8-13.5-5.3-18-3.6-4.6-8.9-6.9-15.9-6.9h0Z"/>
  <path id="Y" class="cls-1" d="M847.4,95.29l-12.3,1.9-48.3,127.9c-3.8,9.5-8.9,17.5-15.2,23.8-6.4,6.4-15.9,9.6-28.7,9.6s-5.7-.3-8.5-.8c-2.6-.5-5.7-1.1-9.3-2l4.2-25.8c1,.2,2.2.3,3.4.5,1.1.2,2.2.3,3.1.3,6,0,10.4-1.5,13.5-4.3,3.1-2.9,5.5-6.5,7.2-10.7l4-10-41.6-108.2-12.3-2v-21.4h64.4v21.4l-14.6,2.6,18,52.6,1.9,9.5h.8c0,.2,20.7-61.9,20.7-61.9l-14.7-2.6v-21.4h64.4v21.2h.2l-.2-.3-.1.1Z"/>
  <path id="T" class="cls-1" d="M1013.3,28.49v47h-27.2l-1.5-19.9h-32.5v124.6l19,3.8v21.2h-73.4v-21.2l19-3.8V55.89h-32.5l-1.5,19.9h-27.1V28.59h157.6-.1l.2-.1Z"/>
  <path id="E-2" data-name="E" class="cls-1" d="M1088.6,207.89c-18.8,0-34.1-6.1-45.5-18.2-11.3-12.1-17-27.6-17-46.2v-4.9c0-19.4,5.4-35.5,16.1-48.2,10.7-12.7,25-18.8,43.2-18.8s31.6,5.4,41.3,16.1c9.7,10.7,14.6,25,14.6,43.3v19.2h-78.5l-.3.6c.6,8.8,3.6,15.8,8.8,21.4,5.2,5.6,12.1,8.4,21,8.4s14.3-.8,19.4-2.4c5.1-1.6,10.9-4.2,17-7.3l9.6,21.8c-5.4,4.2-12.3,7.9-21,10.9-8.6,3-18.1,4.5-28.7,4.5h0v-.2h0ZM1085.3,98.89c-6.6,0-11.8,2.6-15.6,7.5-3.8,5-6.2,11.6-7,19.9l.4.6h43.4v-3.1c0-7.5-1.8-13.5-5.3-18-3.4-4.6-8.9-6.9-15.9-6.9h0Z"/>
  <path id="L" class="cls-1" d="M1156.7,48.79v-20h50.8v153.5l16,3.4v19.9h-65v-19.9l16-3.4V52.19l-17.8-3.3h0v-.1Z"/>
  <g>
    <path class="cls-1" d="M193.02,28.79c-47.7,0-86.5,38.8-86.5,86.5s38.8,86.5,86.5,86.5,86.5-38.8,86.5-86.5S240.71,28.79,193.02,28.79ZM192.6,190.33c-41.42,0-75-33.58-75-75s33.58-75,75-75,75,33.58,75,75-33.58,75-75,75Z"/>
    <path class="cls-1" d="M297.38,202.26c-.35-.35-.82-.54-1.31-.54h0c-.5,0-.96.19-1.31.54l-15.54,15.53c-.35.35-.54.82-.54,1.31,0,.5.19.96.54,1.31l63.11,63.16c.72.72,1.9.72,2.63,0l15.54-15.53c.72-.72.72-1.9,0-2.63l-63.11-63.16Z"/>
    <path class="cls-1" d="M269.81,185.23h-.01s-7.32-7.43-7.32-7.43c-2.55,2.83-5.26,5.5-8.13,8l14,14.33s0,0,.01-.01l9.2,9.42,8.16-8.16-15.91-16.16Z"/>
    <path class="cls-1" d="M366.87,250.4l-76.78-76.99c10.12-17.12,15.95-37.08,15.95-58.41C306.04,51.49,254.55,0,191.04,0s-115,51.49-115,115,51.49,115,115,115c21.87,0,42.31-6.12,59.71-16.72l76.47,76.67c5.47,5.49,12.65,8.23,19.83,8.23s14.31-2.72,19.77-8.17c10.95-10.92,10.97-28.65.05-39.6ZM365.44,273l-15.54,15.53c-1.73,1.73-3.99,2.59-6.26,2.59s-4.54-.86-6.27-2.59l-63.11-63.16c-1.67-1.67-2.59-3.9-2.59-6.26,0-1.56.41-3.06,1.16-4.37l-16.08-16.47s0,0-.01.01l-7.86-8.05c-15.6,11.66-34.94,18.56-55.86,18.56-51.56,0-93.5-41.94-93.5-93.5S141.46,21.79,193.02,21.79s93.5,41.94,93.5,93.5c0,21.49-7.29,41.31-19.53,57.12l14.01,14.23s0,0,0-.01l9.73,9.88c1.53-1.16,3.38-1.79,5.32-1.79h0c2.37,0,4.59.92,6.26,2.6l63.11,63.16c3.45,3.46,3.45,9.07,0,12.53Z"/>
  </g>
</svg>