<?xml version="1.0" encoding="UTF-8"?>
<svg id="_ëîé_1" data-name="‘ëîé_1" xmlns="http://www.w3.org/2000/svg" viewBox="0 0 1994.3 634.04">
  <defs>
    <style>
      .cls-1 {
        fill: #272727;
        stroke-width: 0px;
      }
    </style>
  </defs>
  <path class="cls-1" d="M1992.51,446.94v.91c.49.84.75,1.79.75,2.83v.97c0,.82-.18,1.61-.53,2.37v42.74l.35.62c.46.82.73,1.77.73,2.72v11.45c.29.66.44,1.42.44,2.19v79.09c0,.44-.04.86-.15,1.28v39.93h0c-3.69-.09-7.37-.17-11.06-.26v-40.93c0-.44.04-.86.15-1.28v-75.62c-.29-.69-.44-1.42-.44-2.21v-12.18l-.35-.62c-.46-.84-.73-1.77-.73-2.72v-45.66c0-.09.02-.15.02-.24-.18-.51-.24-1.06-.24-1.64v-5.09c-1.44-.99-2.39-2.65-2.39-4.53v-.6c-.29-.69-.44-1.42-.44-2.17v-5.62h-4.47c-3.07,0-5.53-2.48-5.53-5.53v-4.33h-3.01c-3.05,0-5.53-2.48-5.53-5.53v-5c0-.82.2-1.61.53-2.34-.2-.51-.33-1.04-.38-1.59-.49-.31-.93-.71-1.28-1.15-.91.09-1.81-.04-2.7-.4l-47.96-19.99c-.38-.18-.73-.38-1.06-.6-.33.22-.71.42-1.08.6l-47.96,19.99c-.88.35-1.81.49-2.72.4-.35.44-.8.84-1.28,1.15-.04.55-.18,1.08-.38,1.59.33.73.51,1.53.51,2.34v5c0,3.05-2.45,5.53-5.53,5.53h-2.96v4.33c0,3.05-2.48,5.53-5.53,5.53h-4.51v5.62c0,.75-.13,1.48-.44,2.17v.6c0,1.88-.93,3.54-2.34,4.53v5.09c0,.57-.09,1.13-.27,1.64,0,.09.02.15.02.24v45.66c0,.93-.24,1.86-.71,2.68l-.33.62v2.39c0,3.05-2.48,5.53-5.53,5.53h-23.06c-3.05,0-5.53-2.48-5.53-5.53v-204.27h-8.54c-3.05,0-5.53-2.48-5.53-5.53v-54.08h-16.98c-3.05,0-5.53-2.48-5.53-5.53v-21.96c-2.7-1.7-7.36-4.62-13.2-8.07-7.27-4.33-14.79-8.56-21.71-12.21-9.07-4.78-17.34-8.67-24.57-11.56-21.43-8.62-27.73-6.17-29.14-5.2-.42.27-1.44.97-1.57,3.8,1.3,1.04,2.1,2.61,2.1,4.33l.11,54.15c0,1.66-.73,3.16-1.92,4.2-.13.46-.31,1.46-.31,3.21v229.21c0,3.05-2.48,5.53-5.53,5.53h-32.9c-3.05,0-5.53-2.48-5.53-5.53v-154.67h-51.21v26.05c0,3.05-2.48,5.53-5.53,5.53h-15.79c-3.05,0-5.53-2.48-5.53-5.53v-3.25h-12.01c-3.05,0-5.53-2.48-5.53-5.53v-39.73l-16.89-.75h-14.2c-3.05,0-5.53-2.48-5.53-5.53v-23.37l-21.85-.82h-31.49l-2.12.22v167.98c0,3.05-2.48,5.53-5.53,5.53h-32.53c-3.05,0-5.53-2.48-5.53-5.53V177.07l-.2-.51c-1.79-.49-3.23-1.86-3.8-3.67l-.71-2.28-.71,2.28c-.55,1.81-1.99,3.18-3.78,3.69l-.2.49v11.37c0,.86-.2,1.72-.6,2.5l-2.37,4.64v19.1c0,3.05-2.45,5.53-5.53,5.53h-39.16c-3.05,0-5.53-2.48-5.53-5.53v-16.3c-.27-.15-.51-.33-.75-.55-.22.22-.46.4-.73.55v16.3c0,3.05-2.48,5.53-5.53,5.53h-39.16c-3.07,0-5.53-2.48-5.53-5.53v-19.1l-2.37-4.64c-.4-.77-.6-1.64-.6-2.5v-11.37l-.2-.49c-1.79-.51-3.23-1.88-3.8-3.69l-.71-2.26-.69,2.26c-.57,1.81-2.01,3.18-3.8,3.67l-.2.51v293.11c0,3.05-2.48,5.53-5.53,5.53h-31.49c-3.05,0-5.53-2.48-5.53-5.53V133.62c0-3.6.86-6.39,2.14-8.49h-8.4c-3.05,0-5.53-2.48-5.53-5.53v-20.41c0-.66.07-1.28.18-1.9h-6.15c-3.05,0-5.53-2.48-5.53-5.53v-8.67l-34.01-51.85-34.01,51.85v8.67c0,3.05-2.48,5.53-5.53,5.53h-6.19c.13.64.22,1.33.22,2.01v20.3c0,3.05-2.48,5.53-5.53,5.53h-8.42c1.3,2.1,2.17,4.89,2.17,8.49v345.93c0,3.05-2.48,5.53-5.53,5.53h-34.47c-3.05,0-5.53-2.48-5.53-5.53v-149.3c-1.3-1.02-2.14-2.61-2.14-4.38v-15.41h-2.59c-3.07,0-5.53-2.48-5.53-5.53v-93.2h-14.81c-3.05,0-5.53-2.48-5.53-5.53v-23.73l-32.59-46.17h-2.83l-32.61,46.17v23.73c0,3.05-2.45,5.53-5.53,5.53h-14.75v93.2c0,3.05-2.48,5.53-5.53,5.53h-2.63v15.41c0,1.77-.84,3.34-2.12,4.36v103.84c0,3.05-2.48,5.53-5.53,5.53h-31.09c-3.05,0-5.53-2.48-5.53-5.53V11.06h-153.83v478.36c0,3.05-2.48,5.53-5.53,5.53h-29.25c-3.05,0-5.53-2.48-5.53-5.53v-29.32h-5.51c-3.05,0-5.53-2.48-5.53-5.53v-240.62h-2.08c-3.05,0-5.53-2.48-5.53-5.53v-46.77h-.51c-3.05,0-5.53-2.48-5.53-5.53v-6.06h-2.19c-3.05,0-5.53-2.48-5.53-5.53v-6.72c-1.75-.93-2.92-2.76-2.92-4.86v-3.16c-2.61-.44-4.6-2.7-4.6-5.44v-2.17c-1.46-.99-2.41-2.65-2.41-4.55l-.04-.11c-3.05,0-5.53-2.48-5.53-5.53v-.11c-2.65-.4-4.69-2.7-4.69-5.46v-.4c-1.19-.42-2.21-1.24-2.85-2.3-.66,1.06-1.68,1.88-2.87,2.3v.4c0,2.76-2.03,5.04-4.67,5.46v.11c0,3.05-2.48,5.53-5.53,5.53h-.04v.11c0,1.9-.97,3.56-2.41,4.55v2.17c0,2.74-1.99,5-4.6,5.44v3.16c0,2.1-1.17,3.91-2.9,4.86v6.72c0,3.05-2.48,5.53-5.53,5.53h-2.21v6.06c0,3.05-2.48,5.53-5.53,5.53h-.53v46.77c0,3.05-2.48,5.53-5.53,5.53h-2.06v54.31c0,2.41-1.59,4.55-3.89,5.26-2.32.73-4.82-.13-6.19-2.14l-9.97-14.46h-16.63c-1.84,0-3.54-.91-4.55-2.41l-.6-.84h-5.2c-1.84,0-3.54-.91-4.58-2.41l-.02-.04h-8.67c-1.84,0-3.54-.91-4.55-2.41l-1.13-1.61h-57.18l-1.15,1.64c-1.02,1.5-2.72,2.39-4.53,2.39l-8.73.07c-1.04,1.5-2.72,2.39-4.53,2.39h-5.2l-.57.84c-1.04,1.5-2.74,2.41-4.55,2.41h-16.65l-15.83,23.02v209.48c0,3.05-2.48,5.53-5.53,5.53h-14.99c-3.05,0-5.53-2.48-5.53-5.53v-10.88c-2.7-.38-4.78-2.68-4.78-5.48v-4.8h-14.9c-3.01,0-5.48-2.43-5.53-5.44l-1.55-90.5h-17.78c-3.01,0-5.46-2.39-5.53-5.37l-3.52-136.21h-2.7c-1.68,0-3.18-.75-4.18-1.92-1.75-.93-2.92-2.76-2.92-4.89v-62.97c-.8-.44-1.48-1.06-1.97-1.84h-.04c-.86,1.9-2.79,3.23-5.02,3.23h-16.41c-2.23,0-4.16-1.33-5.02-3.23h-.02c-.49.77-1.17,1.39-1.99,1.84v62.97c0,2.12-1.17,3.96-2.9,4.89-1.02,1.17-2.52,1.92-4.2,1.92h-2.68l-3.54,136.21c-.07,2.99-2.52,5.37-5.51,5.37h-17.8l-1.55,90.5c-.04,3.01-2.5,5.44-5.53,5.44h-14.9v4.8c0,2.79-2.06,5.11-4.75,5.48v10.88c0,3.05-2.48,5.53-5.53,5.53h-15.23c-3.05,0-5.53-2.48-5.53-5.53v-141.85c0-.4.04-.8.13-1.19-.13-.46-.2-.97-.2-1.48v-22.69c-.13-.46-.2-.97-.2-1.5v-8.23c0-1.22.4-2.39,1.15-3.36l.07-.09c-.09,0-.18,0-.27-.02-.09.02-.2.02-.29.02-.46.02-.91-.02-1.35-.11-.44.11-.91.13-1.37.11-.09,0-.2,0-.29-.02-.09.02-.18.02-.27.02-.49.02-.93-.02-1.37-.11-.38.09-.75.13-1.15.11-.18,0-.35,0-.51-.02-.2.02-.38.02-.57.02-.38,0-.73-.02-1.08-.11-.44.11-.91.13-1.37.11-.09,0-.2,0-.29-.02-.09.02-.2.02-.29.02-.46.02-.93-.02-1.37-.11-.44.09-.93.13-1.39.11-.07,0-.15-.02-.22-.02-.11.02-.2.02-.29.02-.49.02-.93-.02-1.37-.11-.38.09-.75.13-1.15.11-.18,0-.33,0-.51-.02-.09.02-.2.02-.29.02-.46.02-.93-.02-1.37-.11-.44.11-.91.13-1.37.11-.09,0-.2,0-.29-.02-.11.02-.22.02-.35.02-.44.02-.88-.02-1.3-.11-.44.09-.91.13-1.39.11-.07,0-.15-.02-.22-.02-.11.02-.2.02-.29.02-.49.02-.93,0-1.37-.11-.44.09-.91.13-1.37.11-.09,0-.2,0-.29-.02-.09.02-.18.02-.29.02-.46.02-.93-.02-1.37-.11-.44.11-.91.13-1.37.11-.09,0-.2,0-.29-.02-.18.02-.38.02-.55.02-.38,0-.75-.02-1.11-.11-.44.11-.93.13-1.39.11-.07,0-.15-.02-.22-.02-.11.02-.2.02-.29.02-.49.02-.93,0-1.37-.11-.44.09-.91.13-1.37.11-.09,0-.2,0-.29-.02-.09.02-.18.02-.29.02-.46.02-.93-.02-1.35-.11-.38.09-.8.13-1.17.11-.15,0-.33,0-.49-.02-.09.02-.2.02-.29.02-.46.02-.93-.02-1.37-.11-.44.11-.91.13-1.37.11-.09,0-.2,0-.29-.02-.18.02-.38.02-.55.02-.38,0-.73-.02-1.08-.11-.44.11-.91.13-1.37.11-.09,0-.2,0-.29-.02-.09.02-.18.02-.29.02-.46.02-.91,0-1.35-.11-.44.09-.91.13-1.37.11-.09,0-.2,0-.29-.02-.09.02-.2.02-.29.02-.46.02-.93-.02-1.35-.11-.38.09-.8.11-1.15.11-.18,0-.33,0-.51-.02-.09.02-.18.02-.29.02-.46.02-.93,0-1.37-.11-.44.09-.91.13-1.37.11-.09,0-.2,0-.29-.02-.13.02-.29.02-.44.02-.42.02-.82-.02-1.19-.11-.44.09-.91.13-1.37.11-.09,0-.2,0-.29-.02-.09.02-.2.02-.29.02-.46.02-.93-.02-1.35-.11-.42.09-.86.13-1.3.11-.11,0-.24,0-.35-.02-.09.02-.18.02-.29.02-.46.02-.91-.02-1.35-.11-.38.09-.75.13-1.15.11-.18,0-.35,0-.51-.02-.2.02-.38.02-.57.02-.38,0-.73-.02-1.08-.11-.44.09-.91.13-1.37.11-.09,0-.2,0-.29-.02-.09.02-.2.02-.29.02-.46.02-.93-.02-1.35-.11-.44.09-.91.13-1.37.11-.09,0-.2,0-.29-.02-.09.02-.18.02-.29.02-.46.02-.91,0-1.35-.11-.44.09-.86.13-1.33.11-.11,0-.22,0-.33-.02-.09.02-.2.02-.29.02-.46.02-.93-.02-1.37-.11-.44.11-.91.13-1.37.11-.09,0-.2,0-.29-.02-.11.02-.22.02-.35.02-.44.02-.86-.02-1.28-.11-.44.09-.91.13-1.37.11-.09,0-.2,0-.29-.02-.09.02-.18.02-.29.02-.46.02-.91,0-1.35-.11-.44.09-.91.13-1.37.11-.09,0-.2,0-.29-.02-.09.02-.2.02-.29.02-.46.02-.93,0-1.35-.11-.38.09-.75.13-1.15.11-.18,0-.35,0-.51-.02-.2.02-.38.04-.58.02-.38,0-.73-.02-1.08-.11-.44.09-.91.13-1.37.11-.09,0-.2,0-.29-.02-.11.02-.22.02-.33.02-.44.02-.88-.02-1.3-.11-.44.09-.91.13-1.37.11-.09,0-.2,0-.29-.02-.09.02-.2.02-.29.02-.46.02-.93-.02-1.35-.11-.44.09-.91.13-1.37.11-.09,0-.2,0-.29-.02-.09.02-.18.02-.27.02-.49.02-.95-.02-1.39-.11-.46.09-.93.13-1.42.11-.07,0-.15-.02-.22-.02-.2.02-.38.02-.57.02-.38,0-.73-.02-1.08-.11-.44.09-.91.13-1.37.11-.09,0-.2,0-.29-.02-.09.02-.2.02-.29.02-.46.02-.93-.02-1.35-.11-.44.09-.91.13-1.37.11-.09,0-.2,0-.29-.02-.09.02-.18.02-.27.02-.49.02-.93-.02-1.37-.11-.38.09-.8.11-1.15.11-.18,0-.35,0-.51-.02-.2.02-.38.02-.58.02-.38,0-.73-.02-1.08-.11-.44.11-.91.13-1.37.11-.09,0-.2,0-.29-.02-.11.02-.22.02-.35.02-.44.02-.88-.02-1.3-.11-.44.09-.91.13-1.39.11-.07,0-.15-.02-.22-.02-.11.02-.2.02-.29.02-.49.02-.93,0-1.37-.11-.44.09-.91.13-1.37.11-.09,0-.2,0-.29-.02-.09.02-.2.02-.29.02-.46.02-.93-.02-1.35-.11-.38.09-.75.13-1.15.11-.18,0-.35,0-.51-.02-.2.02-.38.04-.57.02-.38,0-.75-.02-1.11-.11-.44.09-.93.13-1.39.11-.07,0-.15-.02-.22-.02-.11.02-.2.02-.29.02-.49.02-.93,0-1.37-.11-.44.09-.91.13-1.37.11-.09,0-.2,0-.29-.02-.09.02-.2.02-.29.02-.46.02-.93-.02-1.35-.11-.42.09-.86.13-1.3.11-.11,0-.24,0-.35-.02-.09.02-.18.02-.27.02l.07.09c.75.97,1.15,2.14,1.15,3.36v8.23c0,.53-.07,1.04-.2,1.5v22.69c0,.51-.07,1.02-.2,1.48.09.4.13.8.13,1.19v41.41c0,3.05-2.48,5.53-5.53,5.53H31.75v1.5c0,3.05-2.45,5.53-5.53,5.53h-15.17v48.16h4.51c3.05,0,5.53,2.48,5.53,5.53v9.53c0,3.05-2.48,5.53-5.53,5.53h-4.51v163.49c-3.69.09-7.37.17-11.06.26v-169.28c0-2.03,1.11-3.8,2.74-4.78-1.64-.95-2.74-2.72-2.74-4.75v-59.21c0-3.05,2.48-5.53,5.53-5.53h15.17v-1.5c0-3.05,2.48-5.53,5.53-5.53h35.36v-34.43c-.38-.75-.57-1.59-.57-2.45v-1.68c0-.93.24-1.81.64-2.59v-18.35c-.29-.66-.44-1.42-.44-2.17v-1.08c0-.93.24-1.81.64-2.59v-3.76l-1.7-2.21c-.69-.91-1.08-1.99-1.15-3.1-.53-.86-.82-1.88-.82-2.92v-3.71c0-1.61.71-3.16,1.95-4.2,1.24-1.06,2.87-1.5,4.47-1.24.27.04.53.09.77.15.24-.07.51-.13.77-.18.57-.09,1.17-.09,1.75.02.27.04.53.09.75.15.27-.07.53-.13.8-.18.57-.09,1.15-.09,1.72,0,.27.04.53.11.8.18.24-.07.51-.13.77-.18.57-.09,1.15-.09,1.72,0,.29.04.55.11.8.18.27-.07.53-.13.8-.18.57-.09,1.17-.09,1.75.02.27.04.53.09.77.15.24-.07.51-.13.77-.18.57-.09,1.15-.09,1.72,0,.27.04.53.11.8.18.24-.07.51-.13.77-.18.58-.09,1.15-.09,1.72,0,.27.04.53.11.8.18.24-.07.49-.11.75-.15.57-.11,1.17-.11,1.75-.02.29.04.55.11.8.18.27-.07.53-.13.8-.18.57-.09,1.15-.09,1.72,0,.27.04.53.11.8.18.24-.07.51-.13.77-.18.57-.09,1.15-.09,1.72,0,.27.04.53.11.8.18.24-.07.51-.13.77-.18.57-.09,1.15-.09,1.72,0,.29.04.53.11.8.18.24-.07.49-.11.75-.15.57-.11,1.17-.11,1.75-.02.29.04.55.11.8.18.27-.07.53-.13.8-.18.57-.09,1.15-.09,1.72,0,.27.04.53.11.8.18.24-.07.51-.13.77-.18.57-.09,1.15-.09,1.72,0,.29.04.53.11.8.18.24-.07.49-.11.75-.15.57-.11,1.17-.11,1.75-.02.29.04.55.11.8.18.27-.07.53-.13.8-.18.57-.09,1.15-.09,1.72,0,.27.04.53.11.8.18.24-.07.51-.13.77-.18.57-.09,1.15-.09,1.72,0,.27.04.53.11.8.18.24-.07.51-.13.77-.18.58-.09,1.15-.09,1.72,0,.27.04.53.11.8.18.24-.07.49-.11.75-.15.57-.11,1.17-.11,1.75-.02.29.04.55.11.8.18.27-.07.53-.13.8-.18.57-.09,1.15-.09,1.72,0,.27.04.53.11.8.18.24-.07.51-.13.77-.18.57-.09,1.15-.09,1.72,0,.27.04.53.11.8.18.24-.07.51-.13.77-.18.57-.09,1.15-.09,1.72,0,.29.04.55.11.8.18.27-.07.53-.13.8-.18.57-.09,1.17-.09,1.75.02.27.04.53.09.77.15.24-.07.51-.13.77-.18.57-.09,1.15-.09,1.72,0,.27.04.53.11.8.18.24-.07.51-.13.77-.18.57-.09,1.15-.09,1.72,0,.27.04.53.11.8.18.24-.07.51-.13.77-.18.58-.09,1.15-.09,1.72,0,.29.04.55.11.8.18.27-.07.53-.13.8-.18.58-.09,1.17-.09,1.75.02.27.04.51.09.77.15.24-.07.51-.13.77-.18.57-.09,1.15-.09,1.72,0,.27.04.53.11.8.18.24-.07.51-.13.77-.18.57-.09,1.15-.09,1.72,0,.29.04.55.11.8.18.27-.07.53-.13.8-.18.57-.09,1.17-.09,1.75.02.27.04.51.09.77.15.24-.07.51-.13.77-.18.57-.09,1.15-.09,1.72,0,.27.04.53.11.8.18.24-.07.51-.13.77-.18.57-.09,1.15-.09,1.72,0,.27.04.53.11.8.18.24-.07.51-.13.77-.18.58-.09,1.15-.09,1.72,0,.29.04.55.11.8.18.27-.07.53-.13.8-.18.57-.09,1.17-.09,1.75.02.27.04.53.09.77.15.24-.07.51-.13.77-.18.57-.09,1.15-.09,1.72,0,.27.04.53.11.8.18.24-.07.51-.13.77-.18.57-.09,1.15-.09,1.72,0,.27.04.53.11.8.18.24-.07.49-.11.75-.15.57-.11,1.17-.11,1.75-.02.29.04.55.11.8.18.27-.07.53-.13.8-.18.57-.09,1.15-.09,1.72,0,.27.04.53.11.8.18.24-.07.51-.13.77-.18.57-.09,1.15-.09,1.72,0,.27.04.53.11.8.18.24-.07.51-.13.77-.18.57-.09,1.15-.09,1.72,0,.29.04.55.11.8.18.27-.07.53-.13.8-.18.57-.09,1.17-.09,1.75.02.27.04.53.09.77.15.24-.07.51-.13.77-.18.58-.09,1.15-.09,1.72,0,.27.04.53.11.8.18.24-.07.51-.13.77-.18.57-.09,1.15-.09,1.72,0,.29.04.53.11.8.18.24-.07.49-.11.75-.15.57-.11,1.17-.11,1.75-.02.29.04.55.11.8.18.27-.07.53-.13.8-.18.57-.09,1.17-.09,1.75.02.27.04.53.09.77.15.24-.07.51-.13.77-.18.57-.09,1.15-.09,1.72,0,.27.04.53.11.8.18.24-.07.51-.13.77-.18,1.59-.24,3.23.22,4.47,1.26,1.22,1.06,1.92,2.59,1.92,4.2v3.71c0,1.04-.29,2.06-.82,2.92-.07,1.11-.46,2.19-1.15,3.1l-1.7,2.21v3.76c.42.77.64,1.66.64,2.59v1.08c0,.75-.15,1.5-.44,2.17v18.35c.42.77.64,1.66.64,2.59v1.68c0,.86-.2,1.7-.58,2.45v134.86h4.18v-10.83c0-2.79,2.08-5.11,4.75-5.48v-6.24c0-3.05,2.48-5.53,5.53-5.53h2.56c1.39,0,2.68.51,3.65,1.39h8.8l1.53-90.5c.07-3.03,2.52-5.44,5.53-5.44h17.84l3.52-136.21c.09-2.99,2.54-5.37,5.53-5.37h4.11v-63.57c0-2.41,1.55-4.47,3.69-5.22.82-1.3,2.17-2.26,3.74-2.54,1.02-1.15,2.5-1.88,4.16-1.88h4.71c2.06,0,3.83,1.11,4.8,2.76.77.51,1.44,1.22,1.88,2.06h6.63c.44-.84,1.11-1.55,1.9-2.08.95-1.64,2.74-2.74,4.78-2.74h4.71c1.66,0,3.14.73,4.16,1.88,1.57.27,2.94,1.22,3.74,2.54,2.14.77,3.69,2.81,3.69,5.22v63.57h4.13c3.01,0,5.44,2.39,5.53,5.4l3.49,136.18h17.84c3.01,0,5.48,2.41,5.53,5.44l1.55,90.5h8.78c.97-.88,2.26-1.39,3.67-1.39h2.54c3.05,0,5.53,2.48,5.53,5.53v6.24c2.7.38,4.78,2.68,4.78,5.48v10.83h3.94v-205.68c0-1.13.33-2.21.97-3.14l18.46-26.82c1.02-1.5,2.72-2.39,4.55-2.39h16.63l.6-.86c1.02-1.5,2.72-2.39,4.55-2.39l5.24-.09c1.04-1.48,2.74-2.37,4.55-2.37h8.67l1.13-1.64c1.04-1.5,2.74-2.39,4.55-2.39h63c1.81,0,3.52.88,4.55,2.39l1.11,1.64h8.69c1.81,0,3.52.91,4.55,2.41l.04.04h5.2c1.81,0,3.52.88,4.55,2.39l.57.86h16.65c1.81,0,3.52.88,4.55,2.39l1.53,2.21v-47.5c0-3.05,2.48-5.53,5.53-5.53h2.06v-41.3c0-3.05,2.48-5.53,5.53-5.53h.53v-6.06c0-3.05,2.48-5.53,5.53-5.53h2.21v-6.06c0-2.1,1.17-3.94,2.9-4.86v-3.74c0-2.74,1.99-5.02,4.6-5.46v-1.26c0-1.9.95-3.58,2.41-4.58v-1.06c0-3.05,2.48-5.53,5.53-5.53l.04-.04c0-2.76,2.01-5.04,4.67-5.46v-.15c0-2.41,1.55-4.47,3.71-5.22v-6.97c0-.77.15-1.55.46-2.26.15-1.17.66-2.28,1.48-3.14.09-.24.2-.49.33-.71.07-.11.18-.29.33-.49v-1.55c0-.55.07-1.08.22-1.61.29-.93.73-1.77,1.26-2.48.22-.42.49-.8.8-1.15.64-2.34,2.79-4.05,5.33-4.05s4.67,1.7,5.33,4.05c.29.35.55.73.77,1.15.55.71.97,1.55,1.26,2.48.15.53.24,1.06.24,1.61v1.53c.13.18.22.33.29.42.15.27.29.55.42.84.77.84,1.28,1.95,1.42,3.1.31.71.49,1.48.49,2.26v6.97c2.14.75,3.69,2.81,3.69,5.22v.15c2.65.4,4.69,2.7,4.69,5.46l.04.04c3.05,0,5.53,2.48,5.53,5.53v1.06c1.44.99,2.41,2.68,2.41,4.58v1.26c2.61.44,4.6,2.72,4.6,5.46v3.71c1.72.95,2.92,2.76,2.92,4.89v6.06h2.19c3.05,0,5.53,2.48,5.53,5.53v6.06h.51c3.05,0,5.53,2.48,5.53,5.53v41.3h2.08c3.05,0,5.53,2.48,5.53,5.53v246.08h5.51c3.05,0,5.53,2.48,5.53,5.53v29.32h18.2V5.53c0-2.1,1.17-4,3.05-4.93.77-.4,1.61-.6,2.48-.6h164.89c3.05,0,5.53,2.48,5.53,5.53v423.01h20.03v-102.66c0-1.77.82-3.34,2.12-4.36v-16.58c0-3.05,2.45-5.53,5.53-5.53h2.63v-93.2c0-3.05,2.45-5.53,5.53-5.53h14.75v-19.94c0-1.15.35-2.26,1.02-3.18l35.27-49.95c.75-1.08,1.84-1.81,3.07-2.14V51.3c0-3.05,2.48-5.53,5.53-5.53s5.53,2.48,5.53,5.53v74.07c1.39.27,2.63,1.04,3.47,2.23l35.27,49.95c.64.93.99,2.03.99,3.18v19.94h14.81c3.05,0,5.53,2.48,5.53,5.53v93.2h2.59c3.07,0,5.53,2.48,5.53,5.53v16.56c1.3,1.02,2.14,2.59,2.14,4.38v148.15h23.42V133.62c0-3.03-1.24-3.34-1.24-3.34-2.83-.29-5-2.65-5-5.51v-5.17c0-3.05,2.48-5.53,5.53-5.53h12.49v-13.95c-.09-.07-.15-.09-.15-.09-2.23-.77-3.74-2.87-3.74-5.24v-3.03c0-3.05,2.48-5.53,5.53-5.53h9.86v-4.78c0-1.08.31-2.14.91-3.03l39.54-60.3c1.02-1.57,2.74-2.5,4.62-2.5s3.6.93,4.62,2.5l39.54,60.3c.57.88.91,1.95.91,3.03v4.78h9.86c3.05,0,5.53,2.48,5.53,5.53v3.03c0,2.43-1.57,4.55-3.87,5.28h-.02v14h12.49c3.05,0,5.53,2.48,5.53,5.53v5.17c0,1.46-.31,2.87-1.35,3.91-1.02.99-2.12,1.57-3.54,1.59-1.11.33-1.35,1.99-1.35,3.34v331.03h20.43V176.01c0-.71.13-1.39.4-2.03l2.9-7.32c.55-1.44,1.7-2.54,3.07-3.1l4.11-13.2c.71-2.3,2.85-3.89,5.26-3.89s4.58,1.59,5.28,3.89l4.11,13.2c1.37.55,2.5,1.66,3.07,3.1l2.9,7.32c.27.64.4,1.33.4,2.03v11.1l2.34,4.64c.4.77.62,1.64.62,2.5v14.9h28.1v-12.29c0-.64.11-1.28.33-1.9l1.79-4.84c.4-1.11,1.13-2.01,2.06-2.65l2.3-8c.69-2.37,2.85-3.98,5.31-3.98s4.64,1.61,5.33,3.98l2.3,8c.93.64,1.66,1.55,2.06,2.65l1.79,4.84c.22.62.33,1.26.33,1.9v12.29h28.1v-14.9c0-.86.22-1.72.6-2.5l2.37-4.64v-11.1c0-.71.13-1.39.4-2.03l2.9-7.32c.55-1.44,1.68-2.54,3.07-3.1l4.11-13.2c.73-2.3,2.85-3.89,5.28-3.89s4.55,1.59,5.26,3.89l4.11,13.2c1.37.55,2.52,1.66,3.07,3.1l2.9,7.32c.27.64.4,1.33.4,2.03v253.46h21.47v-167.38c0-2.83,2.12-5.2,4.91-5.51l7.34-.82c.22-.02.42-.02.62-.02h32l22.62.84c.24,0,.49.04.73.07l4.78.84c2.65.49,4.58,2.76,4.58,5.46v22.51h9.04l18.37.82c.31.02.62.04.93.11l3.91.84c2.54.55,4.36,2.81,4.36,5.42v38.83h12.01c3.05,0,5.53,2.48,5.53,5.53v3.25h4.73v-26.05c0-3.05,2.48-5.53,5.53-5.53h62.27c3.05,0,5.53,2.48,5.53,5.53v154.67h21.85v-223.68c0-4.73.97-7.74,2.23-9.64l-.11-49.51c-1.61-2.21-2.01-4.78-2.08-5.46-.02-.2-.04-.42-.04-.62,0-7.67,3.52-11.65,6.46-13.62,7.45-5.04,19.99-3.74,39.47,4.09,7.58,3.05,16.19,7.1,25.56,12.05,7.12,3.74,14.79,8.05,22.22,12.47,9.53,5.64,15.83,9.75,16.1,9.93,1.57,1.02,2.52,2.76,2.52,4.64v19.44h16.98c3.05,0,5.53,2.48,5.53,5.53v54.08h8.54c3.05,0,5.53,2.48,5.53,5.53v204.27h12.27c.11-.33.24-.64.42-.95l.35-.64v-42.76c-.35-.75-.55-1.55-.55-2.37v-.97c0-1.04.29-1.99.8-2.83v-.93c-1.13-1.04-1.75-2.5-1.75-4.02v-1.84c0-2.72,1.95-4.98,4.53-5.44v-1.88c-.66-.93-1.04-2.08-1.04-3.25v-1.33c0-2.03,1.08-3.8,2.72-4.75.95-1.66,2.74-2.79,4.78-2.79h3.58v-4.33c0-3.05,2.45-5.53,5.53-5.53h1.48c-.04-.31-.09-.6-.09-.91v-3.01c0-.77.18-1.5.44-2.17-.2-2.34,1.13-4.64,3.41-5.59l.29-.13c.11-.22.18-.4.27-.55v-2.72c0-3.05,2.45-5.53,5.53-5.53,2.61,0,5.31,1.17,7.12,3.45l39.87-16.63c.04-.13.09-.29.13-.42-.24-1.08-.46-2.7.15-4.53,1.48-4.2,4.25-6.26,8.31-6.26s6.83,2.06,8.25,6.12c.69,1.95.46,3.58.22,4.67.04.13.09.27.13.42l39.87,16.61c1.81-2.26,4.51-3.43,7.14-3.43,3.05,0,5.53,2.48,5.53,5.53v2.72c.07.18.15.35.22.55l.31.13c2.3.95,3.6,3.25,3.41,5.59.27.66.42,1.39.42,2.17v3.01c0,.31-.02.6-.07.91h1.5c3.05,0,5.53,2.48,5.53,5.53v4.33h3.54c2.06,0,3.85,1.11,4.8,2.76,1.64.97,2.74,2.74,2.74,4.78v1.33c0,1.17-.38,2.32-1.08,3.25v1.88c.97.22,2.3.71,3.28,1.86,1.9,2.23,1.82,6.1-.45,9.46Z"/>
</svg>