<?xml version="1.0" encoding="UTF-8"?>
<svg xmlns="http://www.w3.org/2000/svg" xmlns:xlink="http://www.w3.org/1999/xlink" version="1.1" viewBox="0 0 1080 303.1">
  <defs>
    <style>
      .cls-1 {
        clip-path: url(#clippath);
      }

      .cls-2 {
        fill: none;
      }

      .cls-2, .cls-3, .cls-4 {
        stroke-width: 0px;
      }

      .cls-3 {
        fill: #1d0054;
      }

      .cls-5 {
        clip-path: url(#clippath-1);
      }

      .cls-6 {
        clip-path: url(#clippath-4);
      }

      .cls-7 {
        clip-path: url(#clippath-3);
      }

      .cls-8 {
        clip-path: url(#clippath-2);
      }

      .cls-9 {
        clip-path: url(#clippath-7);
      }

      .cls-10 {
        clip-path: url(#clippath-6);
      }

      .cls-11 {
        clip-path: url(#clippath-5);
      }

      .cls-4 {
        fill: #bdd3f6;
      }

      .cls-12 {
        display: none;
      }
    </style>
    <clipPath id="clippath">
      <rect class="cls-2" x="77.3" y="3.2" width="300" height="298.8"/>
    </clipPath>
    <clipPath id="clippath-1">
      <rect class="cls-2" x="98.7" y="22.2" width="272" height="274.7"/>
    </clipPath>
    <clipPath id="clippath-2">
      <rect class="cls-2" x="99" y="11.9" width="274.6" height="278.7" transform="translate(69.4 376.8) rotate(-86.1)"/>
    </clipPath>
    <clipPath id="clippath-3">
      <rect class="cls-2" x="99" y="11.9" width="274.6" height="278.7" transform="translate(69.4 376.8) rotate(-86.1)"/>
    </clipPath>
    <clipPath id="clippath-4">
      <rect class="cls-2" x="116" y="39.5" width="156" height="157.3"/>
    </clipPath>
    <clipPath id="clippath-5">
      <rect class="cls-2" x="99" y="11.9" width="274.6" height="278.7" transform="translate(69.4 376.8) rotate(-86.1)"/>
    </clipPath>
    <clipPath id="clippath-6">
      <rect class="cls-2" x="99" y="11.9" width="274.6" height="278.7" transform="translate(69.4 376.8) rotate(-86.1)"/>
    </clipPath>
    <clipPath id="clippath-7">
      <rect class="cls-2" x="175.6" y="98.2" width="20.2" height="20.2"/>
    </clipPath>
  </defs>
  <g id="Layer_1" data-name="Layer 1" class="cls-12">
    <path class="cls-3" d="M217.5,116.8c0,1.8,0,3.2-.5,5s-.9,3.2-1.4,4.6-1.4,3.2-2.3,4.6c-.9,1.4-1.8,2.7-3.2,3.7-1.4,1.4-2.3,2.3-3.7,3.2s-2.7,1.8-4.6,2.3c-1.4.5-3.2.9-4.6,1.4-1.8.5-3.2.5-5,.5s-3.2,0-5-.5-3.2-.9-4.6-1.4c-1.4-.5-3.2-1.4-4.6-2.3-1.4-.9-2.7-1.8-3.7-3.2-1.4-1.4-2.3-2.3-3.2-3.7s-1.8-2.7-2.3-4.6c-.5-1.8-.9-3.2-1.4-4.6-.5-1.8-.5-3.2-.5-5s0-3.2.5-5,.9-3.2,1.4-4.6,1.4-3.2,2.3-4.6c.9-1.4,1.8-2.7,3.2-3.7,1.4-1.4,2.3-2.3,3.7-3.2,1.4-.9,2.7-1.8,4.6-2.3,1.8-.5,3.2-.9,4.6-1.4,1.4-.5,3.2-.5,5-.5s3.2,0,5,.5,3.2.9,4.6,1.4c1.4.5,3.2,1.4,4.6,2.3,1.4.9,2.7,1.8,3.7,3.2,1.4,1.4,2.3,2.3,3.2,3.7.9,1.4,1.8,2.7,2.3,4.6.5,1.4.9,3.2,1.4,4.6.5,1.8.5,3.1.5,5Z"/>
    <g class="cls-1">
      <path class="cls-3" d="M368.1,252.3l-77.6-77.6c10-16.9,16-37,16-58,0-63.4-51.1-114.6-114.6-114.6s-114.5,51.2-114.5,114.7,51.1,114.6,114.6,114.6,41.1-5.9,58-16l77.6,77.6c5,5,12.3,8.2,20.1,8.2,16,0,28.8-12.8,28.8-28.8.3-7.3-2.9-14.6-8.4-20.1ZM115.7,116.8c0-42,34.2-76.2,76.2-76.2s76.2,34.2,76.2,76.2-34.2,76.2-76.2,76.2-76.2-33.8-76.2-76.2Z"/>
    </g>
    <g class="cls-5">
      <g class="cls-8">
        <g class="cls-7">
          <path class="cls-4" d="M254.2,53.5c19.5,18.2,29.6,43.9,27.8,70.5-1.4,20.1-9.7,39.3-23.5,54.1-33.2,35.5-89,37.5-124.5,4.3-19.5-18.2-29.6-43.8-27.8-70.5,1.4-20.1,9.7-39.3,23.5-54.1,33.1-35.5,88.9-37.4,124.5-4.3ZM289.7,209.7l-5.8,5.7-26.6-26.8c2-1.8,4-3.7,5.8-5.7l26.6,26.8ZM303.5,212.6l57.8,58.5c1,1,1.5,2.4,1.4,3.8-.1,1.2-.6,2.4-1.5,3.2l-9.9,9.8c-.9.9-2.2,1.5-3.5,1.4-1.3,0-2.6-.5-3.5-1.5l-57.8-58.5c-1-1-1.5-2.4-1.4-3.8.1-1.2.6-2.4,1.5-3.2l9.9-9.8c.9-.9,2.2-1.5,3.5-1.4,1.3,0,2.6.5,3.5,1.5ZM124.7,53.2c-14.8,15.9-23.8,36.6-25.3,58.2-1.9,28.6,9,56.3,29.9,75.9,34.5,32.1,86.7,33.6,122.8,5.6l27.4,27.6c-.7,1.4-1.2,2.9-1.3,4.5-.2,3.4,1,6.7,3.4,9.1l57.8,58.5c2.2,2.2,5.2,3.5,8.3,3.5s6.1-1.2,8.3-3.4l9.9-9.8c2-2,3.3-4.7,3.5-7.6.2-3.4-1-6.7-3.4-9.1l-57.8-58.5c-2.2-2.2-5.2-3.5-8.3-3.5s-3.4.4-5,1.1l-27.4-27.6c12.3-15.1,19.8-33.9,21.1-53.4,1.9-28.6-9-56.3-29.9-75.9-38.2-35.5-98.3-33.4-134,4.8"/>
        </g>
      </g>
    </g>
    <g class="cls-6">
      <g class="cls-11">
        <g class="cls-10">
          <path class="cls-4" d="M242.4,66.1c15.7,14.6,23.8,35.3,22.4,56.7-1.1,16.2-7.8,31.6-18.9,43.5-12.9,13.8-30.4,21.8-49.4,22.5-18.9.7-37-6.1-50.8-19-15.7-14.6-23.8-35.3-22.4-56.7,1.1-16.2,7.8-31.6,18.9-43.5,12.9-13.8,30.4-21.8,49.4-22.5,18.9-.7,37,6.1,50.8,19ZM191.4,40.3c-20.7.7-39.9,9.5-54.1,24.6-12.1,13-19.5,29.9-20.7,47.7-1.6,23.4,7.3,46.1,24.5,62.1,15.2,14.2,34.9,21.5,55.7,20.8,20.7-.7,39.9-9.5,54.1-24.6,12.1-13,19.5-29.9,20.7-47.7,1.6-23.4-7.3-46.1-24.5-62.1-15.2-14.1-35-21.5-55.7-20.8"/>
        </g>
      </g>
    </g>
    <g class="cls-9">
      <path class="cls-4" d="M195.6,108.2c0,.7-.1,1.3-.2,1.9-.1.6-.3,1.3-.6,1.9-.2.6-.6,1.2-.9,1.7-.4.5-.8,1.1-1.2,1.5-.5.5-1,.9-1.5,1.2-.5.4-1.1.7-1.7.9-.6.2-1.2.4-1.9.6-.6,0-1.3.2-1.9.2s-1.3,0-2-.2c-.6,0-1.3-.3-1.9-.6-.6-.2-1.2-.6-1.7-.9-.5-.4-1.1-.8-1.5-1.2s-.9-1-1.2-1.5c-.4-.5-.7-1.1-.9-1.7-.3-.6-.4-1.2-.6-1.9-.1-.6-.2-1.3-.2-1.9s.1-1.3.2-2c.1-.6.3-1.3.6-1.9.2-.6.6-1.2.9-1.7.4-.5.8-1.1,1.2-1.5.5-.5,1-.9,1.5-1.2s1.1-.7,1.7-.9c.6-.2,1.2-.4,1.9-.6.6,0,1.3-.2,2-.2s1.3,0,1.9.2c.6,0,1.3.3,1.9.6s1.2.6,1.7.9,1.1.8,1.5,1.2.9,1,1.2,1.5c.4.5.7,1.1.9,1.7s.4,1.2.6,1.9c0,.7.2,1.3.2,2Z"/>
    </g>
  </g>
  <g id="eye">
    <g>
      <polygon class="cls-3" points="528.8 104.1 538.9 106 515.1 186.5 513.5 193.7 513 193.7 511.3 186.3 487.6 106 497.8 104.1 497.8 87.9 448.8 87.9 448.8 104.1 459.8 105.6 499.4 221.9 527 221.9 566.5 105.6 577.7 104.1 577.7 87.9 528.8 87.9 528.8 104.1"/>
      <path class="cls-3" d="M632,120.4c-13.7,0-24.6,4.7-32.7,14.3-8.1,9.5-12.2,21.7-12.2,36.5v3.7c0,14.2,4.3,25.9,12.9,35.1,8.6,9.2,20.1,13.8,34.4,13.8s15.3-1.1,21.8-3.4c6.6-2.2,11.9-5,16-8.2l-7.3-16.6c-4.7,2.5-9,4.4-12.9,5.6-3.9,1.2-8.8,1.8-14.8,1.8s-12-2.1-15.9-6.3-6.1-9.6-6.6-16.2l.2-.5h59.5v-14.6c0-13.8-3.7-24.7-11.1-32.8-7.4-8.1-17.9-12.2-31.3-12.2ZM648.1,162.4h-32.9l-.3-.5c.6-6.2,2.4-11.2,5.3-15,2.9-3.8,6.8-5.7,11.8-5.7s9.4,1.7,12.1,5.2c2.7,3.4,4,7.9,4,13.6v2.4Z"/>
      <path class="cls-3" d="M741.3,138.6l11.2,1.9-15.7,47h-.6c0-.1-1.4-7.3-1.4-7.3l-13.6-39.8,11.1-1.9v-16.2h-48.8v16.2l9.3,1.5,31.6,82-3,7.6c-1.3,3.2-3.1,5.9-5.5,8.1-2.4,2.2-5.8,3.3-10.3,3.3s-1.5,0-2.4-.2c-.9-.2-1.8-.3-2.6-.4l-3.1,19.6c2.7.6,5,1.1,7,1.5,2,.4,4.1.6,6.4.6,9.7,0,17-2.5,21.8-7.3,4.8-4.8,8.6-10.8,11.5-18l36.6-96.9,9.3-1.4v-16.1h-48.8v16.2Z"/>
      <polygon class="cls-3" points="796.5 123.6 817 123.6 818.1 108.6 842.7 108.6 842.7 203 828.3 205.8 828.3 221.9 883.9 221.9 883.9 205.8 869.5 203 869.5 108.6 894.2 108.6 895.3 123.6 915.9 123.6 915.9 87.9 796.5 87.9 796.5 123.6"/>
      <path class="cls-3" d="M970.5,120.4c-13.7,0-24.6,4.7-32.7,14.3-8.1,9.5-12.2,21.7-12.2,36.5v3.7c0,14.2,4.3,25.9,12.9,35.1,8.6,9.2,20.1,13.8,34.4,13.8s15.3-1.1,21.8-3.4c6.6-2.2,11.9-5,16-8.2l-7.3-16.6c-4.7,2.5-9,4.4-12.9,5.6-3.9,1.2-8.8,1.8-14.8,1.8s-12-2.1-15.9-6.3c-3.9-4.2-6.1-9.6-6.6-16.2l.2-.5h59.5v-14.6c0-13.8-3.7-24.7-11.1-32.8-7.4-8.1-17.9-12.2-31.3-12.2ZM986.6,162.4h-32.9l-.3-.5c.6-6.2,2.4-11.2,5.3-15,2.9-3.8,6.8-5.7,11.8-5.7s9.5,1.7,12.1,5.2c2.7,3.4,4,7.9,4,13.6v2.4Z"/>
      <polygon class="cls-3" points="1064 203 1064 78.3 1022.8 78.3 1022.8 94.5 1037.2 97.2 1037.2 203 1024.2 205.8 1024.2 221.9 1077 221.9 1077 205.8 1064 203"/>
    </g>
    <g>
      <path class="cls-3" d="M194.2,32.2c-47.7,0-86.5,38.8-86.5,86.5s38.8,86.5,86.5,86.5,86.5-38.8,86.5-86.5-38.8-86.5-86.5-86.5ZM193.8,193.7c-41.4,0-75-33.6-75-75s33.6-75,75-75,75,33.6,75,75-33.6,75-75,75Z"/>
      <path class="cls-3" d="M263.7,181.2c-2.5,2.8-5.3,5.5-8.1,8l23.2,23.8,8.2-8.2-23.2-23.6Z"/>
      <path class="cls-3" d="M368.1,253.8l-76.8-77c10.1-17.1,15.9-37.1,15.9-58.4,0-63.5-51.5-115-115-115s-115,51.5-115,115,51.5,115,115,115,42.3-6.1,59.7-16.7l76.5,76.7c5.5,5.5,12.6,8.2,19.8,8.2s14.3-2.7,19.8-8.2c10.9-10.9,11-28.6,0-39.6ZM366.6,276.4l-15.5,15.5c-1.7,1.7-4,2.6-6.3,2.6s-4.5-.9-6.3-2.6l-63.1-63.2c-2.9-2.9-3.3-7.2-1.4-10.6l-23.9-24.5c-15.6,11.7-34.9,18.6-55.9,18.6-51.6,0-93.5-41.9-93.5-93.5S142.7,25.2,194.2,25.2s93.5,41.9,93.5,93.5-7.3,41.3-19.5,57.1l23.7,24.1c1.5-1.2,3.4-1.8,5.3-1.8h0c2.4,0,4.6.9,6.3,2.6l63.1,63.2c3.5,3.5,3.5,9.1,0,12.5Z"/>
      <path class="cls-3" d="M298.6,205.6c-.4-.4-.8-.5-1.3-.5h0c-.5,0-1,.2-1.3.5l-15.5,15.5c-.4.4-.5.8-.5,1.3,0,.5.2,1,.5,1.3l63.1,63.2c.7.7,1.9.7,2.6,0l15.5-15.5c.7-.7.7-1.9,0-2.6l-63.1-63.2Z"/>
    </g>
    <path class="cls-3" d="M192.2,91c-14.1,0-25.5,11.4-25.5,25.5s11.4,25.5,25.5,25.5,25.5-11.4,25.5-25.5-11.4-25.5-25.5-25.5ZM184.3,117.9c-5.8,0-10.5-4.7-10.5-10.5s4.7-10.5,10.5-10.5,10.5,4.7,10.5,10.5-4.7,10.5-10.5,10.5Z"/>
    <path class="cls-3" d="M306.5,172.4l9.6,9.6c42.4-30.1,67.1-65.3,67.1-65.3,0,0-35.2-49.7-93.6-81.6,18.7,22.4,30.1,50.7,30.1,81.7-.4,20-5,38.8-13.2,55.6Z"/>
    <path class="cls-3" d="M64.6,116.8c0-31,11.4-59.8,30.1-81.7C36.3,67,1.2,116.8,1.2,116.8c0,0,35.1,49.7,93.6,81.7-18.8-21.9-30.2-50.7-30.2-81.7Z"/>
  </g>
</svg>